<?xml version="1.0" encoding="UTF-8"?>
<!DOCTYPE svg PUBLIC "-//W3C//DTD SVG 1.1//EN" "http://www.w3.org/Graphics/SVG/1.1/DTD/svg11.dtd">
<!-- Creator: CorelDRAW -->
<svg xmlns="http://www.w3.org/2000/svg" xml:space="preserve" width="12.7mm" height="12.7mm" version="1.1" style="shape-rendering:geometricPrecision; text-rendering:geometricPrecision; image-rendering:optimizeQuality; fill-rule:evenodd; clip-rule:evenodd"
viewBox="0 0 1270 1270"
 xmlns:xlink="http://www.w3.org/1999/xlink"
 xmlns:xodm="http://www.corel.com/coreldraw/odm/2003">
 <defs>
  <style type="text/css">
   <![CDATA[
    .str0 {stroke:black;stroke-width:16.93;stroke-miterlimit:22.9256}
    .fil3 {fill:none}
    .fil4 {fill:black}
    .fil0 {fill:#94A5D1}
    .fil1 {fill:#FFDCBD}
    .fil2 {fill:white}
   ]]>
  </style>
 </defs>
 <g id="Capa_x0020_1">
  <metadata id="CorelCorpID_0Corel-Layer"/>
  <path class="fil0" d="M575.52 545.93c28.22,54.14 83.16,38.7 81.03,88.66 -0.04,0.88 44.22,72.64 42.99,113.68 -0.49,16.39 13.23,37.28 13.23,56.65 -8.76,1.83 -23.24,31.8 -53.06,36.24 -38.51,5.73 -61.7,97.33 -99.08,96.06 -15.88,-0.54 -37.64,67.08 -0.43,99.64 27.3,23.88 30.29,12.05 71.4,-7.47 0,-1.31 64.35,-40.68 69.31,-38.97 1.91,9.12 26.74,-8.36 26.74,93.83 0,32.52 7.65,81.17 -36.38,81.17 -1.02,2.98 -81.63,1.66 -94.68,1.66 -54.21,0 -63.35,10.79 -129.13,6.47 -22.53,-1.48 -56.51,2.41 -77.59,-12.66 -19.95,-14.28 -113.59,53.46 -136.82,-36.81 -17.79,-69.14 -3.03,-51.81 -4.96,-122.8 -0.34,-12.5 13.73,-25.25 16.39,-58.96 3.7,-46.92 27.38,-77.97 45.36,-113.26 36.4,-71.45 16.78,-139.72 90.67,-174.91 81.34,-38.73 37.93,-39.3 140.14,-50.84 11.07,-1.25 36.49,-54.27 34.87,-57.38z"/>
  <path class="fil0" d="M778.68 578.85c35.64,-13.85 14.42,42.01 59.91,54.1 31.84,8.46 110.8,88.8 109,130.64 -0.44,10.2 63.55,273.18 70.69,294.49 6.66,19.92 21.93,122.6 0.28,127.05 -38.35,7.87 -22,23.4 -77.44,0.57 -29.33,-12.08 -126.55,-1.33 -188.09,-24.38 -47.4,-17.75 -46.87,12.8 -46.87,-74.04 0,-13.91 -9.93,-76.76 0.14,-78.81 15.47,-3.14 6.28,-16.67 18.19,-18.19 12.25,-1.56 -24.49,-12.47 11.57,-19.84 19.1,-3.9 43.69,-54.49 20.79,-73.99 -0.86,-0.74 -9.23,-40.74 -13.89,-47.3 -13.93,-19.63 40.83,-12.59 -21.92,-43.65 -20.75,-10.28 -8.97,-60.62 -27.69,-86.99 -18.28,-25.76 24.42,-64.94 11.01,-71.76 -18.01,-9.16 75.49,-68.35 74.32,-67.9z"/>
  <path class="fil1" d="M545 947.86c23.42,-5.54 31.72,-19.18 51.85,-29.21 8.43,-4.2 38.81,-50.64 52.75,-61.74 13.57,-10.82 15.68,3.75 47.96,-34.29 15.43,-18.19 61.81,6.54 46.14,17.2 -9.75,6.63 4.81,37.72 6.55,46.36 5.28,26.19 13.74,57.26 -15.1,72.71 -8.08,4.33 -22.82,4.64 -35.54,18.09 -39.4,41.61 -38.38,20.3 -84.79,41.27 -10.92,4.93 -48.81,24.4 -57.06,16.1 -11.36,-11.44 -17.14,-39.73 -17.14,-56.94 0,-22.92 5.99,-24.5 6.32,-27.02l-1.94 -2.53z"/>
  <path class="fil1" d="M605.95 521.53c12.82,4.15 -10.45,47.38 -4.92,48.53 4.07,19.82 61.47,8.03 61.47,49.33 0,43.37 37.76,70.7 39.83,58.02 2.7,-16.47 17.5,-7.87 1.94,-31.99 -11.12,-17.21 38.56,-19.73 52.07,-39.4 10.25,-14.93 45.73,-23.14 -9.64,-34.44 -35.05,-7.15 -110.62,-22.12 -133.24,-48.67 -1.81,-2.11 -5.66,-0.78 -7.51,-1.38z"/>
  <path class="fil1" d="M817.3 219.31c25.3,18.83 57.9,211.18 40.75,257.56 -30.51,82.48 -127.8,47.68 -192.39,31.28 -51.34,-13.04 -70.85,-43.62 -132.3,-62.84 -29.73,-9.3 -63.06,-79.38 5.11,-70.97 104.55,12.9 10.49,-170.47 101.16,-170.47 10.35,0 157.6,5.83 158.46,6.19 0.21,0.08 39.71,24.51 19.21,9.25z"/>
  <path class="fil2" d="M751.27 830.29c-15.82,12.58 6.44,44.81 5.65,64.76 -0.44,10.99 6.42,33.11 -2.81,48.18 -3.36,5.47 -1.16,22.97 -9.15,23.86 -12.11,1.36 0.14,27.01 4.52,32.54 14.06,17.73 41.08,8.66 63.12,9.2 0.11,0 22.82,-9.49 24.13,-12.34 3.93,-8.54 20.21,-24 22,-34.69 0.83,-4.91 9.33,-22.05 10.58,-37.15 1.05,-12.63 16.73,-40.46 8.17,-61.35 -7.99,-19.5 -0.22,-18.16 -27.29,-32.64 -8.59,-4.59 -65.39,-1.94 -78.05,-0.37 -5.26,0.65 -16.55,-3.44 -20.87,0z"/>
  <path class="fil3 str0" d="M538.47 374.34c3.08,-11.18 23.83,-43.2 35.4,-35.39"/>
  <g id="_1863184905744">
   <path id="__xd83c__xdfa8_-Background" class="fil3" d="M613.45 512.05c24.51,-18.67 86.04,-27.06 112.2,-9.09 25.84,18.06 28.65,47.25 40.7,74.11 11.35,-5.36 30.11,2.31 33.41,12.86 4.08,4.97 4.26,18.94 7.08,25.63 122.56,19.51 141.17,115.1 155.92,223.62 19.52,110.12 63.82,220 44.59,333.32 2.5,3.63 4.48,7.15 6.31,11.34 4.37,7.45 -1.26,18 -10.09,17.59 -11.43,-1 -22.75,-2.37 -34.23,-2.8 -31.83,-1.11 -63.69,-0.97 -95.54,-0.57l-4.34 0.06c-160.48,2 -320.95,5.93 -481.43,6.98 -5.83,0.01 -8.68,-5.22 -7.9,-10.37 1.57,-10.37 3.02,-20.75 4.53,-31.13 -37.95,10.03 -78.31,12.55 -116.16,1.05 -2.65,-2.7 6.17,-1.23 7.57,-1.64 -34.84,-23.82 -24.43,-73.98 -21.35,-110.12 19.19,-123.81 25.95,-260.79 100.09,-366.44 32.07,-43.12 79.09,-77.25 133.12,-84.93l1.5 -0.21c15.8,-2.11 33.41,-2.79 47.22,-11.38 15.54,-12.41 22.16,-35.34 38.5,-35.55 5.4,-0.07 12.74,6.76 20.64,11.4 0.59,-10.2 6.09,-18.81 7.3,-26.72l0.1 -0.68c1.26,-9.22 -0.47,-17.52 10.26,-26.33zm263.4 330.4c-34.44,-23.93 -123.42,-11.9 -125.45,-10.56 -4.49,2.95 -6.42,3.21 -8.84,7.04 -2.4,0.32 -4.79,0.65 -7.18,0.99 -4.8,1.56 -1.25,7.47 4.29,5.36 -3.33,14.38 6.48,24.6 10.38,38.81 1.27,4.62 0.05,12.92 0,17.63 0.38,6.02 7.03,13.12 5.92,19.15 -3.94,21.44 -25.3,42.36 -16.3,63.16 5.97,11.74 23.92,17.73 35.85,21.72 24.72,9.49 67.8,-0.35 82.16,-21.72 7.66,-11.4 16.54,-40.16 21.11,-49.07l1.01 -14.15c2.5,-35.17 4.72,-73.03 -2.95,-78.36z"/>
   <path id="__xd83d__xdd8d_-Ink" class="fil4" d="M569.15 552.31c2.38,-2.11 5.9,0.54 4.39,3.38 -3.4,6.4 -6.88,12.46 -11.44,18.11 -2.76,3.43 -5.72,6.67 -8.72,9.88 7.7,6.66 14.3,14.93 20.53,22.68 7.97,9.91 15.51,20.25 24.46,29.32 8.82,8.95 18.58,15.2 30.38,19.37l2.39 0.83c11.85,4.16 24.52,9.78 31.2,21.01 1.31,2.21 -1.34,4.95 -3.57,3.57 -11.61,-7.19 -25.25,-8.64 -37.89,-13.39 -12.2,-4.59 -22.84,-11.66 -32.25,-20.67 -9.38,-9 -17.26,-19.24 -25.49,-29.27 -8.13,-9.91 -16.88,-18.37 -26.49,-26.76 -14.84,9.99 -31.78,14.33 -49,18.6l-1.89 0.47c-17.24,4.27 -34.39,9.23 -50.57,16.66 -14.26,6.56 -28.29,14.39 -39.91,25.06 -12.33,11.32 -21.93,25.79 -30.72,39.93 -19.65,31.64 -33.47,66.3 -45.63,101.39 -12.65,36.49 -23.23,73.72 -31.78,111.39 -4.34,19.16 -7.87,38.45 -10.77,57.88 -1.4,9.36 -2.64,18.74 -3.73,28.14 -1.16,10.03 -1.43,20.36 -4.5,30.01 -1.32,4.14 -4.44,5.85 -7.56,5.71l-0.63 7.92c-0.84,10.57 -1.62,21.14 -1.89,31.77 -0.44,17.68 -0.24,35.31 1.03,52.95l0.18 2.4c1,12.88 3.23,27.34 12.91,36.77 10.02,9.76 25.44,12.83 38.94,13.01 31.46,0.41 61.75,-14.46 89.59,-27.51 28.67,-13.44 56.56,-28.35 83.78,-44.52 13.86,-8.24 27.58,-16.75 41.11,-25.51 6.65,-4.3 13.24,-8.67 19.79,-13.12 3.75,-2.54 7.3,-5.33 11.12,-7.59 -1.87,-1.74 -2.71,-4.48 -1.14,-6.87 -11.03,-9.58 -15.63,-26.69 -16.16,-40.52 -0.44,-11.17 1.21,-22.31 2.5,-33.37 0.66,-5.58 1.46,-11.15 2.3,-16.71 0.33,-2.19 0.59,-4.54 0.98,-6.85 -29.8,16.38 -60.44,30.97 -91.88,43.93 -16.12,6.64 -32.44,12.62 -49,18.09l-3.35 1.1c-15.68,5.14 -31.74,9.99 -47.95,12.93 -0.86,0.15 -1.57,-1.13 -0.64,-1.54 15.8,-6.97 32.14,-12.85 48.18,-19.27l2.63 -1.08 0 0c-0.3,-0.01 -0.61,-0.06 -0.94,-0.13 -9.41,-2.27 -18.74,-5.77 -27.96,-8.72 -8.56,-2.73 -18.18,-4.45 -26.18,-8.58 -0.62,-0.32 -0.27,-1.17 0.33,-1.21 8.99,-0.63 18.75,1.99 27.57,3.54l3.31 0.58c5.55,0.98 11.22,2.03 16.75,3.4 0.2,-1.85 1.23,-3.71 2.7,-4.8 16.18,-11.99 14.54,-36.2 16.27,-54.05l1.28 -13.26c2.26,-23.19 4.65,-46.39 8.27,-69.41 0.2,-1.23 2.1,-0.88 2.11,0.28 0.18,28.54 -1.97,56.95 -3.05,85.45l-0.17 4.67c-0.59,17.59 -1.06,35.84 -12.13,49.37 1.55,-0.9 3.64,-0.9 4.89,0.59 1.54,1.84 2.43,3.89 2.41,5.92 10,-4.2 19.96,-8.5 29.87,-12.9 31.86,-14.12 63.06,-29.92 93.43,-47.02 3.27,-1.84 6.38,-0.39 7.99,2.03l0.24 -0.03c0.03,-0.01 0.07,-0.01 0.12,-0.01l0.23 -0.01c0.01,0 0.01,0 0.02,0 4.28,-2.35 10.1,-0.68 13.77,2.75 0.11,0.1 0.2,0.21 0.3,0.32 4.64,-2.08 8.98,-4.9 12.91,-8.47 8.06,-7.3 14.88,-16.33 20.83,-25.38 10.95,-16.68 20.25,-35.23 35.05,-48.95 12.02,-11.16 26.92,-18.1 42.56,-22.46 -0.07,-0.46 0.1,-0.94 0.42,-1.27 0.8,-0.82 1.38,-1.11 2.41,-0.61 0.09,0.04 0.14,0.1 0.17,0.16l1.53 -2.61c0.83,-1.41 1.68,-2.84 1.98,-3.21 1.78,-2.24 3.6,-4.46 5.46,-6.63 3.14,-3.68 6.72,-7.31 10.87,-9.86 9.09,-5.58 18.64,-2.42 27.98,0.63 5.64,1.84 11.27,3.75 16.9,5.62l0.58 0.19c4.2,1.35 9.12,2.53 10.99,6.99 0.75,1.76 0.86,3.58 0.52,5.36 39.9,-10.15 84.21,-5.49 123.14,6.43 1.5,0.45 2.99,1.68 3.3,3.3 4.46,22.88 6.45,46.35 4.43,69.63 -1.74,20.09 -6.19,39.78 -14.57,58.17l-0.48 1.04c-7.88,17.05 -20.37,38.06 -39.45,43.41 -11.52,3.22 -24.26,1.32 -36,0.73 -11.42,-0.57 -23.09,-0.66 -34.4,-2.45 -10.07,-1.6 -18.9,-6.12 -25.12,-14.31 -5.37,-7.07 -8.2,-15.61 -10.51,-24.11 -1.06,0.34 -2.12,0.7 -3.15,1.1 -4.38,1.71 -8.09,4.47 -11.44,7.72 -7.08,6.86 -12.57,15.18 -19.97,21.73 -6.71,5.92 -14.35,10.53 -22.54,14.07 -16.98,7.34 -35.19,10.27 -53.15,14.16l-1.26 0.28c-13.52,2.96 -27.32,6.61 -39.25,13.65 -0.24,2.07 -1.18,4.02 -2.69,5.3 2.1,1.98 2.99,5.11 1.14,8.05 -5.16,8.2 -14.06,12.87 -22.05,18.11l-0.52 0.35c-7.86,5.21 -15.79,10.32 -23.78,15.32 -16.25,10.18 -32.84,19.8 -49.66,28.99 -27.06,14.79 -54.7,28.73 -82.83,41.39 1.69,8.31 1.07,16.88 2.34,25.25l0.19 1.19c0.55,3.11 -0.19,5.71 -2.33,7.73l-0.22 0.21 0 -0.03 -0.2 0.19 -0.06 0.05 0.02 -0.01c-0.25,0.22 -0.5,0.43 -0.76,0.61l-0.33 0.22 0 0c-2.06,1.25 -4.71,1.23 -6.82,0.13l-0.24 -0.13 -0.41 -0.24c-2.78,-1.6 -4.71,-5.57 -3.55,-8.73 2.84,-7.75 3.91,-16.03 6.54,-23.84l-2.08 0.93 0 0 -2.75 1.2c-29.66,12.83 -62.61,23.64 -94.93,14.89 -14.29,-3.87 -27.63,-12.04 -34.78,-25.37 -7.03,-13.12 -8.03,-28.35 -8.4,-42.94 -0.46,-18.01 0.51,-36.3 2.88,-54.15 1.59,-11.98 3.52,-24.2 6.49,-36.06 -1.53,-1.35 -2.65,-3.28 -2.95,-5.68 -1.4,-11.33 1.06,-23.1 2.56,-34.37 1.47,-11.01 3.09,-21.99 4.93,-32.94 3.7,-22.1 8,-44.17 13.01,-66.02 8.92,-38.88 20.7,-77.08 34.88,-114.36l1.24 -3.25c13.1,-34.08 28.27,-67.43 49.39,-97.36 10.11,-14.33 20.79,-27.31 35.06,-37.63 13.38,-9.67 28.47,-16.64 44.04,-21.96 15.58,-5.32 31.61,-8.89 47.91,-11.11 16.56,-2.26 34.04,-3.64 49.48,-10.43 -1.95,-3.51 -0.28,-8.24 3.01,-10.41 11.07,-7.32 21.3,-16.83 31.22,-25.62zm354.26 318.06c0.46,-0.71 1.57,-0.26 1.36,0.57 -5.38,22.06 -10.43,44.16 -13.73,66.64 -5.96,40.58 -4.86,81.68 -4.38,122.56l0.03 2.11c0.25,22.02 0.6,44.03 1.32,66.04 0.37,11.12 1.1,22.36 0.7,33.48 -0.21,6.04 -1.82,11.75 -2.39,17.72 -0.5,5.21 -0.06,10.51 0.19,15.73 0.17,3.47 -4.95,3.32 -5.3,0l-0.45 -4.3c-0.58,-5.44 -1.29,-10.85 -3.07,-16.06 -2.15,-6.26 -3.18,-12.42 -3.92,-18.99 -1.14,-10.08 -1.65,-20.26 -2.08,-30.41l-0.3 -7.02c-1.84,-42.42 -1.78,-85.03 1.19,-127.4l0.22 -3.03c2.95,-40.05 8.05,-83.33 30.61,-117.64zm-114.73 -252.44c-1.41,-0.57 -0.91,-2.7 0.64,-2.33l2.83 0.68c20.75,4.97 41.12,10.35 60.48,19.6 19.38,9.26 35.78,23.07 48.82,40.07 25.34,33.02 35.86,73.16 44.18,113.26 9.23,44.56 17.64,89.28 26.96,133.82l1.73 8.3c8.62,41.49 16.77,83 22.76,124.98l0.43 3.04c6.05,43.17 9.69,87.83 3.09,131.12 -1.3,8.56 -15.55,6.43 -14.99,-2.03 1.61,-24.46 2.76,-48.79 1.65,-73.3 -1.12,-24.52 -3.42,-48.93 -6.84,-73.23 -2.89,-20.45 -7.18,-40.65 -10.99,-60.94l-0.59 -3.2c-3.19,-17.26 -6.47,-34.5 -9.75,-51.74l-4.9 -25.81c-7.33,-38.65 -14.82,-77.33 -23.27,-115.74l-0.5 -2.26c-8.28,-36.95 -20.47,-75.66 -45.29,-105 -25.18,-29.78 -61.24,-44.78 -96.45,-59.29zm-91.51 391.94c0.61,-1.35 2.73,-1.2 3.38,0 2.55,4.71 2.83,10.72 3.31,16.04l0.06 0.55c0.61,6.49 1.15,13 1.48,19.51 0.63,12.35 0.94,24.69 0.9,37.06 -0.04,12.68 -0.3,25.34 -0.98,38l-0.18 3.39c-0.63,11 -1.67,23.28 -6.9,32.89 -1.9,3.5 -7.07,2.47 -8.16,-1.06 -3.61,-11.58 -1.76,-25.31 -0.83,-37.16l0.71 -9.26c0.71,-9.25 1.39,-18.51 1.93,-27.77 0.74,-12.68 1.34,-25.36 1.93,-38.04 0.19,-4.12 0.39,-8.24 0.61,-12.36l0.33 -6.18c0.29,-5.16 0.27,-10.83 2.41,-15.61zm-405.23 16.41l1.59 -1.54c4.9,-4.8 11.09,-12.18 18.33,-11.73 2.89,0.19 4.73,2.58 4.13,5.43 -1.28,6.07 -7.48,9.22 -11.94,12.93 -4.88,4.06 -9.48,8.41 -14.08,12.79 -4.08,3.89 -8,7.88 -11.82,12l-1.43 1.56c-1.37,1.49 -11.14,10.33 -10.08,12.62l0.05 0.11c0.3,0.43 -0.19,1.04 -0.68,0.89 -4.22,-1.34 -3.96,-4.95 -2.36,-8.62 3.06,-7.04 8.43,-13.55 13.11,-19.56 4.68,-6 9.73,-11.59 15.18,-16.88l0 0zm420.51 -176.56c-3.26,-7.71 -15.27,-7.55 -22.09,-7.08 -17.18,1.16 -35.76,5.5 -51.05,13.54 -15.84,8.32 -26.51,21.66 -36.06,36.42l-0.45 0.69c-9.31,14.47 -18.27,31.61 -32.85,41.56 -7.42,5.07 -16.09,9.7 -25.1,11.7 -0.62,1.09 -1.62,1.95 -2.93,2.27l-0.61 0.14c-2.57,0.56 -6.55,1.19 -10,0.81 0.03,1.69 0.01,3.36 0.05,4.96 0.12,4.57 0.17,9.17 0.17,13.74 0.01,9.59 -0.51,19.2 -0.11,28.79 0.35,8.48 1.55,17.34 5.62,24.92 2.99,5.57 6.93,9.25 11.69,12.76 11.7,-7.13 24.93,-11.48 38.36,-14.75 16.24,-3.95 32.87,-6.59 48.74,-11.96 7.64,-2.58 14.99,-5.96 21.64,-10.54 7.06,-4.88 12.46,-11.47 18.01,-17.91l0.86 -1c5.67,-6.5 11.85,-12.72 19.85,-16.24 6.9,-3.04 15.98,-3.58 22.01,-8.28 3.15,-2.45 3.42,-6.02 3.75,-9.67 -3.86,0.55 -7.95,-0.33 -11.8,-0.78l-1.99 -0.24c-3.64,-0.43 -7.19,-0.91 -10.77,-1.83 -0.67,-0.17 -0.67,-1.18 0,-1.35 4.23,-1.09 8.42,-1.56 12.76,-2.07l1.02 -0.12c3.93,-0.52 8.05,-1.3 11.91,-0.43 0.69,-2.63 1.68,-5.14 3.08,-7.66 1.97,-3.53 5.69,-7.54 6.19,-11.67 0.15,-1.23 -0.14,-2.68 -0.72,-3.77l-0.2 -0.37c-0.24,-0.44 -0.53,-0.88 -0.95,-1.15 -0.05,0.05 -0.15,0.11 -0.37,0.18 -2.96,0.93 -5.54,-0.52 -6.92,-2.75 -5.82,0.72 -12.18,0.48 -17.64,0.72l-5.53 0.26c-5.9,0.28 -12.07,0.39 -17.61,-0.8 -0.78,-0.16 -1.01,-1.45 -0.24,-1.79 6.82,-2.91 15.09,-3.84 22.39,-4.96 4.08,-0.63 8.18,-1.11 12.27,-1.66 2.73,-0.37 5.61,-0.97 8.44,-1.12 7.07,-8.81 3.26,-22.7 -6.59,-26.49 -3.58,1.57 -6.8,0.66 -10.72,0.32 -3.91,-0.34 -7.83,-0.56 -11.76,-0.55 -7.86,0.04 -16.2,2.11 -23.99,1.22 -1.26,-0.15 -2.44,-1.83 -1.18,-2.86 5.96,-4.87 14.51,-6.46 22.08,-7.5l1.56 -0.21c2.54,-0.33 5.63,-0.82 8.83,-1.1 0.72,-1.42 2.02,-2.48 3.97,-2.75 0.58,-0.08 1.16,-0.13 1.75,-0.18l-0.01 -0.05 0 0c4.76,-0.23 4.55,-8.27 3.24,-11.36zm-325.72 150.41c-0.09,0.13 -0.18,0.25 -0.28,0.37l-0.15 0.17 0.78 -0.31 -0.35 -0.23 0 0zm408.75 -167.64c-20.03,-2.15 -40.08,-1.7 -60.17,-1.12 -1.6,5.26 -7.2,9.74 -12.61,9.91 4.24,6.46 4.68,15.2 1.7,22.05 6.32,2.52 11.76,7.04 15.07,13.48 4.58,8.92 3.98,18.85 -0.55,27.09 3.87,3.5 6.15,9.19 5.92,14.54 -0.26,5.98 -3.82,11.08 -6.77,16.03 -3.2,5.35 -3.31,10.06 -4.29,16.05 -1.44,8.77 -7.35,14.09 -14.95,17.41l0.4 1.59c1.96,7.64 4.4,15.69 10.01,21.28 7.21,7.18 18.39,7.11 27.92,7.57l0.46 0.02c8.72,0.44 17.44,0.95 26.16,1.44l6.54 0.37c10.04,0.55 19.68,0.62 27.88,-6.02 13.38,-10.84 22.55,-28.78 28.36,-44.66 12.18,-33.33 12.33,-69.9 6.74,-104.62 -18.76,-6.04 -38.23,-10.3 -57.82,-12.41zm-166.54 55.3l0.15 0.01c4.12,0.47 6.95,3.81 7.96,7.77 1.47,5.76 0.75,10.97 4.27,16.17 3.63,5.34 5.86,9.62 6.39,16.22 0.21,2.72 0.11,5.43 0.72,8.09l0.44 1.87c0.46,1.98 0.84,3.9 0.61,6.03 -0.21,1.95 -1.16,3.46 -3.11,4.09 -6.36,2.03 -11.26,-2.65 -12.91,-8.58 -1.42,-5.12 0.48,-11.22 -1.52,-16.03 -1.11,-2.66 -3.16,-4.89 -4.31,-7.58 -1.15,-2.65 -1.72,-5.43 -1.91,-8.32 -0.35,-5.47 4.49,-12.04 1.79,-16.99 -0.57,-1.06 0.08,-2.78 1.43,-2.75zm-84.45 -56.42c4.31,-0.87 9.19,-2.88 13.44,-1.21 2.18,0.86 3.26,3.52 1.41,5.37 -3.2,3.21 -7.85,3.39 -12.16,4.15l-0.38 0.06c-5.1,0.95 -10.21,1.84 -15.32,2.69 -9.62,1.59 -19.27,3.01 -28.95,4.2 -9.94,1.23 -19.91,2.33 -29.89,3.15l-3.86 0.32c-8.43,0.67 -17.21,1.18 -25.48,-0.11 -1.2,-0.19 -1.01,-1.94 0,-2.24 9.06,-2.75 19,-3.48 28.38,-4.65 9.96,-1.23 19.9,-2.54 29.82,-4.09 9.91,-1.54 19.8,-3.21 29.65,-5.04 4.46,-0.83 8.9,-1.69 13.34,-2.6zm155.34 -8.81c-3.78,-1.34 -7.93,-3.32 -12.03,-2.66 -7.06,1.15 -13.34,8.03 -18.93,12.56l2.81 -0.55c14.35,-2.76 33.37,-5.73 45.42,3.4 0.03,-0.05 0.05,-0.1 0.09,-0.16 0.97,-1.47 2.1,-2.63 3.33,-3.89 0.11,-0.11 0.23,-0.23 0.34,-0.34l0.66 -0.71 -1.52 -0.53c-3.25,-1.15 -7.1,-2.63 -7.71,-2.85l-0.04 -0.01c-4.14,-1.41 -8.3,-2.8 -12.42,-4.26zm-117.95 -301.03c-0.59,-7.6 11.23,-7.54 11.82,0 1.28,16.46 -2.43,32.76 -10.4,47.19 -0.06,0.11 -0.12,0.2 -0.18,0.3 4.98,2.59 10.02,5.08 15.18,7.31 6.59,2.84 13.3,5.44 20.14,7.64 6.18,1.99 13.8,2.77 19,6.91 10.96,8.74 6.84,26.86 4.74,38.61l-0.33 1.85c-1.05,6.05 -1.81,12.25 0.73,18.05 2.73,6.2 8.23,10.79 13.13,15.23l1 0.9c4.34,3.96 9.31,8.77 12.5,14.14 2.91,-6.02 6.88,-10.94 11.08,-16.48 2.99,-3.95 0.86,-5.25 -1.29,-9.11 -2.07,-3.72 -3.08,-7.68 -2.44,-11.92 1.2,-7.83 7.45,-13.49 13.68,-17.74 7.36,-5.02 15.56,-8.74 23.17,-13.4 15.62,-9.59 30.83,-20.55 44.54,-32.73 0.38,-0.34 1.03,0.1 0.73,0.56 -10.83,16.48 -23.52,30.72 -39.13,42.8 -6.32,4.9 -12.97,8.96 -19.66,13.24l-1.92 1.23c-2.69,1.74 -6.04,4.07 -7.26,7.03 -1.22,2.98 1.39,5.23 2.79,7.7 4.46,7.84 2.31,15.16 -2.97,21.81l-0.25 0.31c-5.25,6.47 -9.23,12.48 -11.13,20.75 -4.09,17.76 1.61,36.25 7.57,52.92l0.23 0.66c3.23,8.98 6.65,17.9 9.45,27.03l0.77 2.52c2.54,8.4 4.62,16.69 1.77,25.32 -0.96,2.94 -4.97,3.64 -6.63,0.87 -5.87,-9.75 -7.33,-21.48 -11.01,-32.19 -3.58,-10.45 -7.7,-20.71 -11.16,-31.19 -4.46,-13.51 -7.44,-28.04 -5.82,-42.21 -0.05,-0.08 -0.1,-0.16 -0.14,-0.24l-1.14 -2.49c-3.09,-6.72 -6.08,-12.59 -11.71,-17.95 -5.87,-5.59 -12.24,-10.54 -16.86,-17.31 -10.03,-14.7 -3.83,-31.06 -2.61,-47.13l0.13 -1.97c0.23,-3.34 0.35,-7.88 -1.83,-10.18 -2.45,-2.61 -8.2,-3.27 -11.46,-4.42 -8.4,-2.98 -16.69,-6.44 -24.58,-10.61 -7.51,-3.96 -14.78,-8.34 -21.55,-13.47l-3.44 -2.58c-5.41,-4.09 -11.03,-8.55 -14.66,-14.12 -0.42,-0.64 0.29,-1.68 1.05,-1.37 6.06,2.46 11.6,6.38 17.27,9.78 0.09,-0.21 0.19,-0.42 0.31,-0.63 7.01,-12.7 9.9,-26.77 8.78,-41.22zm193.59 87.03c2.41,-6.63 13.42,-6.12 12.98,1.75 -0.34,6.05 -2.9,11.51 -5.25,17l-0.25 0.59c-2.42,5.72 -5.22,11.09 -8.57,16.33 -6.4,10.02 -13.89,19.32 -21.89,28.1 -7.26,7.96 -16.78,12.82 -27.76,12.02 -4.62,-0.35 -9.29,-1.52 -13.34,-3.83 -4.81,-2.75 -10.04,-10.99 -16.18,-8.99 -0.59,0.19 -1.15,-0.68 -0.63,-1.09 7.08,-5.71 15.13,3.14 21.92,5.27 10.22,3.22 20.72,-0.34 27.3,-8.61 6.87,-8.63 13.19,-18.3 18.97,-27.7 2.93,-4.77 5.61,-9.73 7.92,-14.83 2.33,-5.16 2.86,-10.76 4.78,-16.01zm-16.48 -40.77c-0.3,-0.91 0.83,-1.78 1.64,-1.26 4.65,3.03 8.69,7.04 12.99,10.55 4.76,3.9 9.56,7.72 14.44,11.48 7.11,5.48 -1.14,15.57 -7.39,9.58 -8.57,-8.19 -17.94,-18.9 -21.68,-30.35zm-25.58 -32.06c1.9,-7.3 13.09,-4.29 11.46,2.92l-0.06 0.22c-3.09,11.92 1.31,24.05 10.7,31.77l0.35 0.29c5.94,4.75 -2.48,13.07 -8.36,8.36 -12.84,-10.28 -18.18,-27.75 -14.09,-43.56z"/>
   <path id="__xd83c__xdfa8_-Background_0" class="fil3" d="M850.62 303.36c-3.69,-29.42 -15.27,-60.66 -27.44,-88.08 -27.38,-58 -90.05,-65.98 -146.24,-77.94 -55.45,-8.07 -114.16,-15.36 -168.77,0.75 -30.7,7.52 -42.69,44.1 -37.85,72.96 2.77,17.99 10.95,35.01 17.93,51.68 13.87,34.24 22.67,70.89 22.69,107.95 -0.95,24.22 -4.37,51.87 23.45,62.13 26.48,13.17 28.72,48.88 61.87,69.13 13.41,27.17 49.92,29.56 76.2,35.86 16.62,3.18 33.42,5.52 50.26,7.03 48.78,6.26 87.8,-7.88 113.33,-51.35 17.08,-26.45 29.81,-57 26.66,-89.06 -3.13,-33.76 -8.34,-67.34 -12.09,-101.06z"/>
   <path id="__xd83d__xdd8d_-Ink_1" class="fil4" d="M677.36 66.86c2.78,-3.15 7.07,-2.07 9.68,0.43 1.69,0.49 3.33,1.24 4.88,2.22 3.51,-0.45 7.18,-0.45 10.62,-0.32 0.84,-0.47 1.73,-0.89 2.7,-1.24 6.95,-2.55 13.11,-1.25 18.18,2.15 2.45,-2.32 5.53,-3.77 9.48,-3.55 3.52,0.2 6.02,1.85 8.17,4.04 2.15,-3.09 5.61,-5.3 9.93,-5.61 6.03,-0.43 11.83,1.99 16.64,5.74 2.8,-3.21 6.62,-5.06 10.88,-5.08 2.8,-0.51 5.75,-0.31 8.42,0.5 3.88,1.17 7.28,3.37 9.99,6.21 4.29,-4.11 9.54,-7.06 15.59,-6.63 7.83,0.57 14.33,6.33 17.34,13.42 5.31,2.12 10.2,5.15 14.29,9.48 0.22,0.22 0.43,0.46 0.65,0.7 2.2,0.81 4.28,1.97 6.1,3.49 5.79,4.82 7.08,11.79 5.17,18.62 0.27,1.09 0.49,2.21 0.7,3.32 5.42,0.82 10.35,3.95 13.15,9.05 3.83,6.99 3.07,16.21 -1.07,22.88 -1.79,2.87 -4.05,5.29 -6.6,7.41 2.88,6.53 1.5,14.33 -3.14,19.62 -1.13,1.82 -2.52,3.47 -4.08,4.95 1.73,6.76 -1.34,13.73 -7.45,17.34l-0.53 1.32c-0.09,0.21 -0.17,0.43 -0.27,0.64 -0.06,0.28 -0.15,0.55 -0.23,0.82 -0.15,2.4 -0.93,4.75 -2.5,6.97 -3.21,4.54 -7.19,7.5 -9.29,12.81l-0.22 0.56c-0.9,2.51 -3.83,4.28 -6.32,3.5 13.85,28.45 21.1,60.1 26.09,91.13 2.49,15.47 4.4,31 5.96,46.59l1.52 15.53c1.34,13.79 2.54,27.64 2.55,41.48 0.02,31.32 -8.94,61.44 -28.16,86.37 -18.18,23.55 -43.9,40.63 -72.97,47.35 -30,6.94 -65.2,4.2 -92.1,-11.67 -7.94,-4.67 -0.99,-15.89 7.09,-12.13 15.28,7.11 30.8,12.39 47.74,13.57 16.51,1.16 33.06,-0.9 48.72,-6.3 25.91,-8.95 47.95,-27.7 62.12,-51.04 6.98,-11.5 12.03,-23.98 14.72,-37.17 3.35,-16.45 2.84,-33.44 1.61,-50.09l-0.08 -1.14c-2.43,-32.08 -5.64,-64.36 -10.82,-96.12 -4.59,-28.09 -11.63,-55.61 -20.77,-82.52 -3.59,-3.16 -7.59,-5.76 -11.88,-7.75 -31.4,-1.31 -62.86,-0.93 -94.22,1.24 -26.75,1.86 -53.36,5.01 -79.78,9.6l-2.83 0.49c-5.85,1.04 -12.34,1.64 -17.85,4 -4.73,2.02 -6.64,5.92 -7.83,10.7 -3,12.11 -3.46,25.36 -3.96,37.78 -0.5,12.13 0.62,24.37 -0.35,36.47 -0.83,10.12 -3.42,20.48 -10.91,27.8 -3.93,3.83 -8.75,5.93 -13.28,8.84 -2.93,1.88 -4.17,3.81 -3.79,7.29 0.81,7.61 6.94,17.19 0.06,23.71 -1.21,1.14 -3.31,1.29 -4.5,0 -2.84,-3.09 -6.76,-5.45 -10.13,-7.94 -1.41,-1.03 -0.23,-3.04 1.36,-2.32 2.11,0.94 4.25,2.05 6.45,3.03 -4.85,-3.99 -11.74,-5.95 -17.48,-7.11 -2.89,-0.58 -5.92,-0.75 -8.93,-0.48 -2.23,1.06 -4.5,2.05 -6.77,3.01 -2.89,1.21 -5.81,2.31 -8.75,3.36 -10.2,8.31 -15.06,21.83 -12.94,35.05 1.16,7.3 4.53,15.24 10.87,19.5 7.52,5.04 17.59,2.88 25.71,6.62 7.6,3.51 12.23,10.59 15.7,17.92l1.44 3.05c3.22,6.76 6.52,13.34 10.92,19.49 5.08,7.12 11.31,13.51 18.1,19.01 3.29,2.66 6.8,5.05 10.43,7.23l0.99 0.59c3.68,2.15 6.31,4.2 6.56,8.76 0.08,1.59 -0.92,3.04 -2.22,3.87 -5.56,3.52 -11.09,-0.89 -15.71,-3.97 -5,-3.31 -9.77,-7.05 -14.19,-11.12 -8.4,-7.73 -15.67,-16.9 -21.26,-26.87 -4.26,-7.58 -6.68,-18.26 -13.41,-24.14 -4.11,-3.59 -9.92,-3.62 -15.05,-4.27 -4.78,-0.62 -9.3,-1.61 -13.55,-3.97 -17.28,-9.6 -22.17,-32.85 -18.07,-50.82 0.7,-3.03 1.67,-5.98 2.87,-8.82 -6.43,1.07 -13.66,-5.58 -11.05,-12.3 0.2,-0.51 0.43,-0.98 0.65,-1.47 -4.24,-2.79 -7.59,-7.02 -9.18,-12.55 -0.81,-2.86 -0.93,-5.76 -0.5,-8.55 -2.06,-1.38 -3.76,-3.27 -4.85,-5.61 -3.41,-1.58 -6.44,-3.94 -8.25,-7.32 -2.5,-4.66 -2.18,-8.95 -0.28,-12.81 -0.26,-0.49 -0.52,-0.98 -0.77,-1.49 -7,-4.44 -11.89,-12.09 -11.33,-20.57 0.18,-2.81 0.87,-5.35 1.95,-7.63 -0.09,-0.29 -0.18,-0.59 -0.26,-0.87 -5.86,-2.98 -10.71,-7.88 -12.43,-14.41 -1.73,-6.58 0.31,-13.14 4.38,-18.18 -5.96,-4.36 -9.55,-10.45 -7.37,-19.66 0.88,-3.74 2.66,-7.15 5.06,-10.02 -0.01,-0.09 -0.03,-0.18 -0.05,-0.27l-0.55 -0.43c-7.36,-5.81 -11.59,-13.2 -7.07,-22.3 2.02,-4.09 4.91,-6.95 8.31,-8.82l0.17 -0.54 0 0c-2.44,-5.21 -3.26,-11.01 -1.58,-17.09 1.37,-5.02 4.61,-9.01 8.77,-11.66 -0.28,-2.25 -0.24,-4.64 0.2,-7.24 0.75,-4.38 2.92,-8.2 6.1,-10.91 0.12,-0.58 0.27,-1.14 0.44,-1.71 1.07,-3.47 3.07,-7.23 5.4,-10.02 1.91,-2.32 4.06,-3.16 6.68,-3.25 -0.16,-2.13 -0.05,-4.3 0.39,-6.5 1.34,-6.77 5.65,-13.14 12.03,-16.03 2.62,-1.18 5.38,-1.53 8.04,-1.24 2.27,-4.77 6.68,-8.22 12.12,-8.97 2.11,-0.29 4.08,-0.27 5.88,-0.01 1.03,-0.47 2.09,-0.9 3.2,-1.29 0.73,-0.26 1.48,-0.5 2.22,-0.73 2.52,-3.12 5.82,-5.62 9.68,-7.11 4.46,-1.74 9,-1.56 13.02,-0.1l1.28 -0.27 0 0c2.01,-3.48 5.2,-6.17 10.12,-7.39 5.58,-1.38 11.31,0.54 15.7,4.05 0.02,0 0.04,0 0.07,-0.01 2.29,-5.13 6.21,-8.71 12.79,-8.46 4.11,0.16 7.81,2.19 10.67,5.09 1.59,-0.2 3.17,-0.38 4.77,-0.55 1.69,-1.98 3.57,-3.83 5.64,-5.48 3.4,-2.73 7.82,-2.51 10.32,1.32 0.54,0.84 1.05,1.68 1.56,2.53l2.29 -0.16 0 0c2.7,-3.65 6.38,-6.11 11.43,-6.31 4.62,-0.19 7.92,2.08 10.43,5.25 2.05,-0.05 4.1,-0.09 6.16,-0.12 2.39,-2.77 5.21,-5.22 8.43,-7.24 2.46,-1.55 6.09,-1.03 8.09,1.04 1.35,1.4 2.6,2.87 3.77,4.39 3.01,-3.38 7.07,-5.6 11.41,-6.45zm-146.13 315.41c4.64,-2.64 10.87,0.22 15.36,2.46 5.47,2.74 10.9,6.86 14.25,12.02 4.56,7.04 -6.16,12.72 -10.95,6.41 -2.95,-3.88 -5.3,-7.8 -8.88,-11.2 -3.26,-3.11 -8,-5.2 -9.88,-9.31 -0.07,-0.14 -0.05,-0.3 0.1,-0.38zm3.26 -170.69l0.08 -0.25c1.32,-3.61 -4.43,-5.16 -5.74,-1.58 -1.98,5.42 0.3,11.32 5.66,13.66 1.48,0.65 3.18,0.42 4.07,-1.07 0.76,-1.26 0.41,-3.43 -1.06,-4.08 -3.02,-1.31 -4.03,-3.64 -3.01,-6.68l0 0zm-49.58 -10.09c2.88,-2.54 -1.34,-6.75 -4.21,-4.21 -2.67,2.36 -4.66,5.57 -4.14,9.26 0.52,3.76 3.36,6.41 6.46,8.29 3.29,1.99 6.29,-3.16 3.01,-5.15l-0.37 -0.22c-1.38,-0.86 -2.99,-2.03 -3.22,-3.72 -0.25,-1.79 1.26,-3.18 2.47,-4.25zm16.35 -44.87l0.21 -0.15c3.09,-2.21 0.12,-7.38 -3.01,-5.14 -2.87,2.05 -5.17,4.71 -5.41,8.38 -0.24,3.57 1.58,6.66 3.95,9.17 2.64,2.79 6.85,-1.43 4.21,-4.22 -2.56,-2.71 -3.07,-5.67 0.05,-8.04l0 0z"/>
   <path id="__xd83d__xdd8d_-Ink_2" class="fil4" d="M769.07 457.6c1.53,-2.65 5.03,-5.1 8.24,-4.72 14.38,1.68 14.35,19.12 8.8,29.3 -4.92,9.02 -15.11,14.32 -25.3,13.55 -10.71,-0.82 -19.84,-7.12 -23.85,-17.14 -2.66,-6.63 -3.88,-18.87 3.18,-23.32 0.13,-0.09 0.35,-0.07 0.45,0.05 3.39,3.95 3.52,9.87 6.49,14.25 2.76,4.09 7.04,7.46 12.06,7.98 3.75,0.39 7.54,-0.96 9.01,-4.33 0.79,-1.82 0.7,-2.81 0.41,-4.07l-0.28 -1.09c-0.93,-3.81 -1.36,-6.72 0.79,-10.46zm3.85 -76.46c7.49,4.56 18.92,15.19 10.85,26.49 -9.49,9.97 -23.16,-1.46 -29.9,-6.63 -6.24,-4 -13.26,6.3 -7.47,10.97 48.68,36.05 68.43,-29.64 30.31,-36.19 -4.2,-0.72 -5.76,3.95 -3.79,5.36zm-79.18 -31.26c4.61,-6.91 15.11,-5.89 17.64,2.3 1.38,4.44 -0.52,8.43 -0.42,12.87 0.08,3.74 -0.16,7.91 -1.31,11.54 -2.62,8.27 -10.06,14.12 -18.85,13.87 -8.77,-0.24 -16.5,-5.79 -20.17,-13.61 -3.68,-7.85 -2.9,-15.97 -0.21,-23.95 0.13,-0.39 0.63,-0.57 0.93,-0.25 3.18,3.38 5.51,6.95 7.92,10.74l2.47 3.88c1.89,2.92 4.63,6.65 8.15,6.42l0.53 -0.05c0.98,-0.09 0.83,0.11 1.58,-1.23 0.35,-0.62 0.29,-1.77 0.46,-2.49l0.06 -0.25 0 0 -0.03 -0.13c-0.08,-0.36 -0.15,-1.02 -0.21,-2.18l-0.02 -0.25c-0.25,-5.4 -1.78,-12.34 1.48,-17.23zm116.66 4.59c-0.83,-8.83 11.59,-10.79 15.71,-4.26 2.16,3.41 2.78,7.69 3.26,11.75l0.22 1.93c0.49,4.16 0.68,8.5 -1.12,12.39 -2.85,6.12 -9.04,9.35 -15.72,8.84 -6.38,-0.49 -12.2,-4.19 -15.27,-9.81 -2.74,-5.01 -5.46,-14.79 -2.13,-20.02 0.2,-0.32 0.6,-0.36 0.87,-0.12 3.14,2.79 3.65,7.88 5.52,11.51 1.92,3.75 4.84,7.4 9.27,7.97 4.23,0.54 5.85,-1.77 4.77,-5.81 -1.39,-5.21 -4.86,-8.76 -5.38,-14.37zm-113.3 -57.12l2.03 -0.77c6.95,-2.63 16.5,-5.67 22.16,-0.01 3.49,3.49 4.15,8.63 1.66,12.89 -3.02,5.15 -8.43,5.28 -13.65,6.04 -5.95,0.87 -11.99,2.51 -17.53,4.85 -6.23,2.64 -12.02,5.93 -17.69,9.6 -5.38,3.49 -10.75,9.2 -17.2,10.28 -0.26,0.04 -0.56,-0.07 -0.63,-0.36 -1.47,-6.31 2.6,-12.52 6.24,-17.44 4.39,-5.95 9.71,-10.84 15.67,-15.23 5.74,-4.23 12.3,-7.29 18.94,-9.85zm126.35 22.43l0.63 -0.11c4.21,-0.7 8.04,-0.54 11.21,2.8 2.43,2.55 3.37,5.86 2.21,9.23 -1.07,3.11 -3.45,6.27 -6.92,6.92 -11.69,2.2 -24.65,1.84 -36.4,0.17 -5.38,-0.76 -10.8,-1.7 -16.04,-3.17l-2.41 -0.7c-4.37,-1.25 -9.38,-2.55 -12.56,-5.77 -1.14,-1.16 -0.48,-2.81 0.89,-3.35 5.54,-2.17 13.13,-1.01 19.04,-1.18 6.88,-0.2 13.76,-0.71 20.61,-1.42 6.68,-0.7 13.15,-2.21 19.74,-3.42z"/>
   <g>
    <path id="__xd83d__xdd8d_-Ink_3" class="fil4" d="M684.46 483.27c8.04,-18.84 25.59,-32.69 45.79,-37.75 14.83,-3.71 30.4,-3.59 45.52,-2.12 7.92,0.77 16.42,1.4 23.88,4.34 6.38,2.51 11.58,7.27 15.48,12.85 4.65,6.61 7.81,14.17 10.04,21.93 0.31,1.1 0.61,2.21 0.88,3.33 -0.96,5.85 -3.01,10.83 -8.43,14.51 -5.29,3.59 -11.6,5.06 -17.88,5.59 -0.62,-0.3 -1.22,-0.61 -1.76,-0.92 -9.8,-5.61 -16.7,-18.87 -29.07,-17.08 -11.04,1.61 -18.3,15.5 -24.86,23.65 -21.08,2.45 -42.13,-3.88 -59.27,-15.93 -0.88,-4.13 -0.93,-8.29 -0.32,-12.4l0 0zm155.91 -14.29c-1.68,-4.73 -3.8,-9.32 -6.32,-13.63 -8.32,-14.28 -21.09,-25.66 -36.25,-32.16 -35.86,-15.36 -82.27,-4.53 -111.23,20.66 -9.9,8.61 -19.9,21.27 -22.92,34.88 -0.91,0.18 -1.76,0.65 -2.46,1.32 -20.93,-13.18 -42.48,-25.86 -59.34,-44.13 -12.25,-13.28 -20.76,-28.99 -25.98,-46.25 -0.42,-1.42 -2.72,-1.21 -2.65,0.36 0.02,0.37 0.04,0.73 0.06,1.1 -0.21,-0.67 -1.25,-0.33 -1.32,0.33 -2.81,20.97 -6.32,43.2 -3.09,64.28 1.93,12.58 7.65,21.79 15.28,31.73 8.18,10.66 17.44,20.57 26.91,30.08 6.01,6.04 12.29,13 19.64,17.42 8.56,5.14 18.27,9.05 27.4,13.02 9.29,4.04 18.72,7.78 28.33,11.02 19.2,6.51 39.06,11 59.25,12.97 16.18,1.57 34.66,3.28 50.16,-2.8 11.88,-4.67 21.46,-13.1 29.07,-23.24 8.28,-11.05 14.82,-23.63 18.44,-36.9 3.76,-13.79 -2.18,-37.84 -2.98,-40.06z"/>
   </g>
  </g>
 </g>
</svg>
