<?xml version="1.0" encoding="UTF-8"?>
<!DOCTYPE svg PUBLIC "-//W3C//DTD SVG 1.1//EN" "http://www.w3.org/Graphics/SVG/1.1/DTD/svg11.dtd">
<!-- Creator: CorelDRAW -->
<svg xmlns="http://www.w3.org/2000/svg" xml:space="preserve" width="12.7mm" height="12.7mm" version="1.1" style="shape-rendering:geometricPrecision; text-rendering:geometricPrecision; image-rendering:optimizeQuality; fill-rule:evenodd; clip-rule:evenodd"
viewBox="0 0 1270 1270"
 xmlns:xlink="http://www.w3.org/1999/xlink"
 xmlns:xodm="http://www.corel.com/coreldraw/odm/2003">
 <defs>
  <style type="text/css">
   <![CDATA[
    .str1 {stroke:#303034;stroke-width:12.7;stroke-miterlimit:22.9256}
    .str0 {stroke:#303034;stroke-width:7.62;stroke-miterlimit:22.9256}
    .fil1 {fill:none}
    .fil6 {fill:#303034}
    .fil5 {fill:#E38238;fill-rule:nonzero}
    .fil0 {fill:#B7927E;fill-rule:nonzero}
    .fil3 {fill:#6A549E;fill-rule:nonzero}
    .fil4 {fill:#6A549E;fill-rule:nonzero}
    .fil2 {fill:#B7927E;fill-rule:nonzero}
   ]]>
  </style>
   <clipPath id="id0">
    <path d="M635 21.16c339.01,0 613.83,274.83 613.83,613.84 0,339.01 -274.82,613.84 -613.83,613.84 -339.01,0 -613.84,-274.83 -613.84,-613.84 0,-339.01 274.83,-613.84 613.84,-613.84z"/>
   </clipPath>
 </defs>
 <g id="Capa_x0020_3">
  <metadata id="CorelCorpID_0Corel-Layer"/>
  <g>
  </g>
  <g style="clip-path:url(#id0)">
   <g id="_2092165654672">
    <g>
     <g>
      <path class="fil0" d="M741.53 531.75c-31.24,34.96 -42.33,43.37 -88.92,58.66 -17.53,6.64 -39.36,20.63 -60.59,29.11 -18.92,7 -34.52,10.94 -54.81,11.76 -24.17,0.2 -41.67,-4.34 -62.35,-17.03 -17.37,-11.46 -31.91,-19.69 -48.5,-33.21 -10.84,-9.21 -18.84,-17.42 -26.43,-29.57 -4.23,-7.18 -6.67,-12.97 -8.57,-21.11 -1.85,-9.18 -1.81,-16.5 0.26,-25.65 0.02,-2.8 2.93,-7.11 3.95,-9.58 1.45,-3.5 5.75,-6.21 8,-8.64 5.49,-3.82 10.35,-5.58 16.98,-6.06 6.01,-0.16 10.04,0.59 15.59,2.63 3.12,0.5 12.67,6.57 16.06,8.29 10.04,6.1 19.92,12.51 30.43,17.79 3.16,1.7 6.23,2.64 9.46,3.95 1.12,0.46 -0.36,0.2 -0.37,0.42 -1.83,0.39 -3.51,1.15 -5.06,2.19 -2.29,1 -3.41,3.74 -4.69,5.25l-0.43 1.92c1.6,-3.47 0.22,-12.99 -0.36,-16.68 -1.65,-9.4 -7.36,-57.13 2.98,-64.13 0.92,0.61 18.3,56.2 19.22,59.07 2.65,8.29 5.03,16.63 5.21,25.39 0.35,2.74 -1.13,5.8 -1.75,8.36 -0.63,2.54 -3.34,4.23 -4.63,5.82 -1.33,1.63 -5.29,2.22 -6.86,2.92 -1.92,0.87 -6.19,0.2 -8.05,0.43 -5.01,0.63 -13.62,-3.4 -18.09,-4.06 -6.65,-0.98 -27.92,-12.03 -35.66,-15.29 -4.08,-1.72 -6.81,-2.92 -11.02,-4.37 -1.13,-0.26 -0.7,0.09 0.42,0.1 1.65,-0.03 3.12,-0.66 4.47,-1.58 0.8,-0.28 1.8,-1.91 2.35,-2.49 0.64,-0.67 0.82,-2.11 1.15,-2.65 -0.25,2.72 0.09,4.75 0.98,7.32 0.23,1.79 3.39,6.19 4.43,7.77 4.49,6.83 12.91,11.66 18.78,16.74 12.1,10.49 33.11,17.75 46.66,26.12 11.59,5.76 20.74,7.01 33.54,5.76 13.26,-1.68 23.87,-5.48 35.96,-11 22.12,-10.29 42.89,-26.04 63.04,-34.5 50.41,-18.98 39.1,-26.71 73.77,-60.7 4.8,-4.31 9.03,-7.77 14.75,-10.86 4.8,-2.42 8.78,-3.64 14.17,-4.23 3.42,-0.98 8.26,0.61 11.63,0.86 4.41,0.34 8.82,4.15 12.25,5.76 5.96,4.65 9.42,9.25 12.16,16.24 1.14,1.51 1.86,7.78 2.4,9.88 0.63,2.5 0.4,6.78 0.69,9.53 0.35,5.13 0.89,2.74 -1,-1.21 -2.13,-3.88 -4.92,-6.56 -8.81,-8.67 -2.22,-1.13 -3.59,-1.58 -5.98,-2.02 -5.69,0.02 -10.59,2.1 -15,5.61 -4.52,3.96 -6.93,8.01 -8.28,13.86 1.4,-9 2.81,-18.99 2.31,-28.12 -0.32,-5.66 -1.34,-4.91 0.6,-0.83 1.83,3.31 4.01,5.61 7.06,7.84 2.13,2.41 7.39,3.12 9.85,4.18 2.69,0.41 6.37,-0.11 4.24,0.65 -10.74,3.89 -17.01,7.45 -28.96,10.01 -6.02,1.05 -10.74,1.18 -16.84,0.4 -9.12,-1.48 -15.75,-4.5 -22.88,-10.41 -6.87,-6.25 -10.7,-12.2 -13.66,-20.96 -2.32,-3.5 -2.05,-14.38 -2.77,-18.4 -0.4,-11.82 -1.89,-22.65 -7.11,-33.38 -0.04,-0.16 -0.75,-1.38 -0.89,-1.61 -1.73,-2.97 -2.88,-3.57 -4.67,-5.83 -1.5,-1.89 -4.88,-2.15 -6.32,-2.92 -23.3,-4.56 -46.09,-10.54 -69.88,-11.65 -7.57,-0.11 -14.47,0.15 -21.7,2.6 -5.47,2.09 -8.15,4.24 -11.54,9.05 -4.68,7.75 -9.19,13.26 -16.38,18.86 -8.56,6.22 -16.09,9.12 -26.69,9.8 -9.28,0.18 -16.16,-1.49 -24.4,-5.66 -3.76,-0.85 -11.78,-8.72 -14.99,-11.26 -12.41,-13.23 -20.37,-27.17 -27.18,-43.83 2.35,4.33 5.2,6.98 9.6,9.17 4.45,1.93 8.21,2.36 12.96,1.39 -2.74,0.37 -27.69,5.71 -19.93,2.28 -7.79,2.83 -13.9,4.54 -22.24,4.97 -3.72,0.81 -8.7,-0.72 -12.35,-1.04 -4.94,-1.22 -8.52,-2.78 -12.73,-5.65 -3.89,-1.74 -6.92,-7.33 -9.44,-10 -2.11,-2.24 -3.3,-7.84 -4.41,-10.63 -2.03,-5.1 -0.6,-11.72 -0.6,-16.94 2.43,-14.76 6.66,-25.4 15.05,-37.52 4.73,-5.41 49.63,-58.72 54.52,-58.99 14.43,13.07 -14.1,71.52 -20.79,83.17 4.36,-5.81 -1.88,9.08 -1.59,17.23 0.19,1.28 0.62,1.57 0.52,0.12 -0.18,-1.22 -0.67,-2.42 -1.28,-3.48 -0.6,-1.76 -2.98,-3.3 -4.02,-4.48 -1.07,-1.2 -3.65,-1.81 -4.94,-2.46 -0.52,-0.26 -1.92,-0.35 -2.31,-0.59 -0.51,-0.3 5.39,-2.77 5.43,-3 0.15,-0.87 17.77,-5.92 19.31,-6.34 3.38,-0.97 7.56,-1.87 10.77,-2.98 8.84,-1.72 15.96,-0.93 24.19,2.77 8.16,4.1 13.37,9.22 17.66,17.28 4.58,7.09 11.21,18 17.86,22.98 0.98,0.65 1.27,0.49 0.21,-0.28 -2.6,-1.56 -5.41,-1.98 -8.4,-1.99 -4.1,0.17 -7.31,1.12 -10.74,3.38 -1.38,0.97 -2.27,2.09 -1.53,0.3 10.67,-19.04 22.26,-30.34 41.79,-40.13 17.28,-7.77 31.36,-10.2 50.15,-10.88 30.46,-0.18 54.03,4.98 83.49,10.05 16.24,3.08 27.83,8.21 40.88,18.36 11.45,9.58 18.28,18.42 25.29,31.53 1.64,2.01 6,13.57 7.03,16.59 5.81,18 7.85,32.78 7.98,51.64 0,0.01 -0.64,-4.49 -0.93,-4.45 -1.84,-5.43 -4.54,-9.14 -8.76,-13.01 -4.76,-3.96 -9.34,-6.2 -15.45,-7.2 -1.43,-0.66 -5.52,-0.05 -7.2,0 -2.38,0.58 11.32,-4.44 20.86,-7.31 10.19,-2.86 17.98,-3.77 28.6,-2.28 7.87,1.39 13.52,3.7 20.18,8.13 6.7,4.85 11.11,9.76 15.18,16.96 6.38,12.32 7.88,22.72 7.97,36.41 1.7,6.72 -4.37,33.69 -5.16,41.65 -2.48,11.24 -6.9,18.86 -15.45,26.56 -8.97,7.24 -17.14,10.38 -28.64,11.06 -10.42,0.13 -17.93,-1.17 -27.43,-5.64 -9.45,-5 -15.51,-10.7 -20.85,-19.97 -5.62,-11.04 -7.07,-19.48 -7.06,-31.61 0,-0.08 -0.1,-4.71 0.1,-2.96 0,0 1.48,5.74 1.54,5.98 2.47,6.31 5.83,10.52 11.18,14.72 1.9,2.52 9.28,4.37 11.84,5.58 2.9,1.36 7.71,0.61 10.77,0.84 3.53,0.26 7.23,-1.95 10.24,-2.84 3.18,-1.8 0.55,-0.35 -1.19,1.06 -0.23,-0.28 -9.62,8.86 -10.46,9.74z"/>
     </g>
     <path class="fil1" d="M455.69 251.88c-12.79,37.16 -15.84,41.04 -37.61,71.54 -0.95,1.32 -26.43,57.16 17.76,38.03 2.21,-0.95 29.65,-7.04 33.08,-7.04 0.06,0.37 31.84,75.94 54.99,35.15 27.44,-48.32 94.34,-28.51 139.85,-20.27 37.5,6.78 49.9,46.82 49.9,81.04 0,47.21 82.94,-60.07 55.94,69.17 -47.23,9.71 -9.48,-51.04 -40.63,-24.1 -28.07,24.26 -27.06,43.8 -86.56,62.41 -22.47,7.03 -94.29,64.62 -150.34,29.2 -20.15,-12.73 -78.97,-42.56 -71.39,-75.64 2.92,-12.77 104.52,78.62 84.19,-10.58 -7.55,-33.14 -6.19,-25.63 -6.19,-58.73"/>
     <g>
      <path class="fil0" d="M585.19 268.26c0.01,0 0.1,0.03 0.1,0.03 2.16,0.75 6.09,0.86 8.35,0.87 3.34,0.89 32.57,-1.98 39.15,-1.83 21.28,0.24 36.94,3.11 55.28,14.52 10.31,7.18 16.74,14.1 23.41,24.7 3.63,4.14 14.37,34.95 5.93,37.99 -5.6,0.81 -23.24,-15.03 -30.47,-19.33 -5.12,-4.82 -12.87,-6.08 -19.24,-8.05 -12.02,-2 -21.17,0.32 -32.68,3.58 -13.51,3.94 -25.47,8.25 -39.46,10.95 -9.18,1.39 -16.31,1.76 -25.59,0.57 -11.62,-1.94 -19.78,-5.29 -29.32,-12.28 -4.92,-3.21 -11.55,-7.33 -17.39,-8.56 -3.2,-0.81 -2.39,0.36 0.56,0.6 3.61,-0.03 6.61,-1.01 9.53,-3.11 0.01,0 0.07,-0.05 0.08,-0.06 3.03,-2.36 0.67,-1.22 1,-0.93 -3.45,5.04 -6.79,13.05 -9.97,18.73 -2.1,3.39 -3.94,5.99 -6.12,9.25 -4.78,5.93 -9.42,9.54 -16.37,12.79 -5.34,2.21 -9.56,3.15 -15.35,3.28 -4.74,1.01 -10.5,-1.99 -14.94,-2.88 -5.26,-1.06 -12.34,-8.13 -16.08,-11.93 -3.54,-5.57 -22.63,-76.58 -20.46,-82.84 13.99,-7.96 52.96,20.28 62.85,35.62 5.61,6.96 1.46,-4.89 8.72,0.96 -2.28,-3.22 -5.9,-5.35 -9.41,-6.97 -2.53,-1.88 -9.11,-1.79 -11.83,-2.32 -3.86,-0.77 -9.18,1.93 -12.45,2.58 -4.73,2.17 -8.07,4.48 -11.46,8.39 -0.38,0.28 -1.4,2.06 -1.83,1.83 -1.76,-0.92 9.28,-23.92 9.89,-25.48 4.95,-8.49 9.65,-14.25 17.37,-20.46 1.28,-1.45 7.74,-5.13 9.68,-6.1 8.17,-3.93 14.77,-5.57 23.83,-6.08 13.46,-0.19 23.05,2.61 35.05,8.47 11.98,6.52 20.6,13.52 30.51,22.81 -0.56,-0.11 -1.89,-0.17 -0.87,0.69z"/>
     </g>
     <path class="fil1" d="M435.84 253.54c52.89,47.52 25.83,38.09 45.74,60.1 18.06,19.95 9.25,-81.03 80.93,-18.9 34.58,29.96 109.41,-33.79 141.23,54.71"/>
     <g>
      <path class="fil2" d="M585.55 560.32c-5.45,0.21 -12.4,-0.14 -17.55,0.34 -9.38,-0.03 -16.12,-1.8 -24.46,-5.94 -3.68,-0.86 -12.37,-8.71 -15.71,-11.16 -8.11,-5.97 -15.75,-18.89 -21.75,-26.92 -4.73,-6.32 -28.76,-50.38 -12.99,-55.34 12.02,-3.78 39.94,21.8 49.1,27.98 6.73,4.39 14.02,9.05 21.77,11.35 1.52,0.53 4.3,1.46 5.8,0.51 1.34,-1.36 -3.16,-2.52 -3.74,-2.64 14.85,-3.56 28.64,-7.21 42.91,-12.69 3.69,-0.88 8.91,-3.33 12.6,-4.83 1.51,-0.62 4.52,-2.15 5.88,-2.53 6.68,-3.01 10.67,-5.85 16.35,-10.52 12,-8.57 31.77,-26.7 47.45,-21.36 13.07,6.2 10.68,33.3 8.23,44.53 -0.58,4.42 -1.55,8.28 -2.79,12.55 -6.68,16.11 -14.39,26.65 -28.19,37.47 -3.22,3.61 -17.57,10.29 -22.46,12.08 -7.89,2.8 -14.74,4.38 -22.98,5.76 -5.43,1.94 -30.77,1.63 -37.47,1.36z"/>
     </g>
     <path class="fil1" d="M692.16 447.02c-30.6,64.5 -45.32,76.82 -125.25,79.37 -21.21,0.68 -54.97,-53.58 -59.96,-69.45"/>
     <g>
      <path class="fil2" d="M522.8 286.41c0.26,-1.58 0.55,-3.14 0.83,-4.72 4.06,-20.91 8.91,-36.42 22.45,-53.38 9.03,-10.14 17.3,-15.83 30.14,-20.39 13.6,-4.14 24.32,-4.4 38.3,-2.28 9.69,1.87 15.67,5.09 23.48,10.8 2.75,1.16 13.31,11.83 16.15,14.45 12.56,11.59 22.09,27.09 32.57,40.2 10.87,16.13 19.67,31.22 26.88,49.33 6.44,16.5 11.56,33.61 7.46,51.34 -0.18,-2.15 -0.63,-4.01 -1.63,-5.93 -0.24,-0.8 -1.4,-2.14 -2.2,-2.56 -1.27,-0.64 1.61,5.99 -0.17,7.31 -1.85,1.02 -5.35,-1.26 -7.95,-1.23 -0.49,-0.18 -0.75,0.73 -0.76,0.74 -0.03,0.02 -0.25,0.95 -0.67,1.14 -5.45,-14.3 -12.35,-24.97 -21.29,-37.37 -10.72,-13.23 -21.63,-25.07 -33.84,-36.95 -10.82,-10.6 -21.64,-20.34 -34.07,-29.04 -3.55,-3.23 -8.13,-5.16 -12.04,-7.56 -3.68,-1.91 -3.88,-0.77 -0.11,0.29 -3.61,0.04 -8.27,0.31 -11.11,2.85 -0.96,0.36 -2.01,3.19 -2.41,4.07 -3.6,7.99 -3.32,17.15 -4.72,25.6 -2.07,12.45 -0.71,29.4 -2.3,42.81 -1.12,9.47 -2.7,15.05 -4.85,24.1 -1.16,4.84 -4.52,9.47 -6.62,13.73 -3.89,5.85 -7.76,9.91 -13.48,14.03 -4.08,4.24 -12.53,6.51 -17.6,9.01 -9.1,2.59 -16.1,2.91 -25.38,0.85 -9.24,-2.53 -15.41,-6.12 -22.21,-12.81 -3.85,-2.2 -8.18,-12.04 -10.65,-15.34 -5.15,-6.88 -9.8,-33.09 -11.28,-42.63 -0.25,-1.57 -0.56,-4.94 -0.97,-6.28 -1.72,-11.14 -3.46,-23.54 -7.29,-34.15 -0.48,-1.22 -1.84,-3.26 -0.39,-2.82 0.23,0.06 3.9,0.62 2.19,-0.31 0.04,-0.18 -8.13,-0.52 -9.18,-0.64 -1.28,-0.04 -1.29,-0.06 -2.26,-0.8 -1.98,-0.62 -1.56,0.41 -2.48,0.64 -1.19,0.3 -3.46,6.33 -3.47,6.34 -4.48,18.39 1.52,47.83 -8.21,56.68 -23.17,11.99 -40.64,-45.76 -42.65,-58.6 -1.81,-4.66 1.29,-18.11 1.78,-23.05 0.03,-0.38 0.42,-1.54 0.55,-1.97 2.4,-8.52 5.65,-14.84 11.19,-21.77 7,-8.34 13.83,-13.24 23.72,-17.75 10.68,-4.72 19.41,-6.44 31.01,-7.31 15.63,-0.38 26.87,2.56 40.06,11.05 11.05,7.9 17.51,15.77 24.04,27.58 9.6,18.64 13.04,34.68 16.58,55.04 0.94,2.87 1.8,11.18 2.4,14.75 0.19,1.17 2.85,14.12 2.85,14.12 -1.17,-1.95 -1.91,-2.99 -3.55,-4.69 -3.92,-3.9 -7.89,-6.03 -13.22,-7.49 -4.86,-1.08 -9.1,-1.24 -13.9,0.18l-2.86 1.32c-2.3,1.67 -4.04,3.29 -5.6,5.67 -0.27,0.44 -0.65,1.08 -0.77,1.59 0.64,0.37 2.79,-9.5 2.81,-9.53 0.49,-0.76 5.93,-34.44 6.7,-38.26z"/>
     </g>
     <path class="fil1" d="M440.8 346.14c-17.95,-25.38 -38.02,-97.56 26.46,-97.56 62.32,0 28.22,139.81 73.33,109.28 25.36,-17.16 -2.51,-130.02 69.03,-119.35 17.99,2.68 92.52,89.04 90.81,132.44 -0.12,3.08 2.14,4.46 4.96,8.27"/>
     <g>
      <path class="fil0" d="M695.18 342.45c4.41,17.63 24.66,117.38 -1.73,124.41 -23.11,-7.22 -52.57,-101.07 -79.8,-132.93 -0.34,-0.84 -4.84,-6.68 -5.8,-8.04 -2.72,-3.83 -6.39,-8.39 -8.52,-12.53 -1.84,-2.84 0.88,-1.68 -0.8,-3.8 -9.52,-9.83 -45.73,-28.92 -37.56,-50.16 6.12,-7.36 31.02,-8.51 42.73,-11.17 3.34,-1.11 11.7,-2.95 14.87,-2.07 12.26,1.82 20.82,6.36 30.53,13.93 6.08,2.62 19.62,19.79 23.53,25.49 1.44,2.09 3.02,4.87 4.49,6.78 8.36,10.88 15.41,36.55 18.06,50.09z"/>
     </g>
     <path class="fil1" d="M561.52 258.5c49.05,29.91 49.02,1.66 83.77,54.71 21.6,32.98 33.64,111.54 33.64,153.65"/>
     <g>
      <path class="fil2" d="M522.7 636.91c-2.1,1.12 -7.16,3.06 -8.56,3.99 -15.03,5.63 -27.08,6.73 -42.89,3.85 -16.74,-3.89 -28.18,-10.41 -41.22,-21.45 -14.31,-13.06 -23.6,-26.09 -33.35,-42.71 -4.24,-5.33 -15.69,-29.95 -18.75,-37.15 -2.82,-7.03 -16.22,-45.29 -2.91,-48.47 3.87,0.86 26.54,28.98 30.52,33.24 9.39,9.7 19.05,18.93 28.92,28.14 9.46,9.89 18.6,18.24 31.06,24.17 5.33,2.8 11.12,5.3 17.25,4.05 2.46,0.38 5.43,-3.2 6.78,-3.91 1.1,-0.58 6.13,-7.31 6.82,-8.54 5.62,-9.2 8.96,-18.2 10.58,-28.85 0.21,-0.46 0.7,-7.28 0.29,-7.58 0,0 0.01,0.15 0.02,0.16 0.08,0.45 0.72,2.57 0.91,2.72 1.57,3.3 3.36,5.46 6.12,7.86 -12.65,-11.75 -19.09,-23.3 -25.29,-39.18 -3.97,-5.96 -8.62,-34.9 -9.79,-43.29 -2.07,-14.88 -6.01,-75.65 18.42,-78.03 17.15,-1.66 30.14,34.38 35,46.21 2.3,4.85 5.89,11.72 7.62,16.56 3.48,9.78 10.85,20.3 15.15,29.57l8.06 10.56c6.68,5.8 10.68,11.25 14.37,19.25 2.95,3.92 3.8,14.19 5.09,18.84 0.29,1.08 0.41,4.59 0.46,5.88 0.31,9.92 -0.76,18.07 -3.07,27.7 -6.43,23.78 -16.6,41.82 -33.93,59.42 -2.36,4.06 -18.98,14.65 -23.68,16.99z"/>
     </g>
     <path class="fil1" d="M498.68 385.83c3.22,33.15 15.2,110.34 40.26,131.73 27.64,23.6 -38.26,167.79 -116.19,46.3 -11.58,-18.05 -33.21,-48.56 -33.21,-68.89"/>
     <g>
      <path class="fil2" d="M383.15 509.76c-0.16,-2.01 0.02,-4.78 -0.19,-6.53 -0.5,-4.15 1.3,-9.08 1.91,-13.08 2.38,-7.81 5.52,-12.97 11.44,-18.69 4.45,-3.88 8.22,-6.11 13.84,-8 5.45,-1.62 9.83,-2.1 15.49,-1.55 7.78,1.04 13.18,3.23 19.58,7.64 6.1,2.35 14.32,15.98 18.5,20.55 -5.08,-4.87 18.54,16.8 32.87,29.36 8.72,7.91 16.82,15.77 23.45,25.56 3.55,4.95 6.16,9.27 8.03,15.1 1.43,2.69 1.54,6.37 2.02,9.29 0.35,2.12 -0.18,11.02 -3.59,10.8 -1.25,-0.07 -6.26,-6.18 -6.96,-7.21 -0.32,-0.46 -4.9,-3.71 -5.52,-4.01 -2.48,-1.18 -10.2,-5.02 -12.26,-5.51 -9.83,-2.33 -20.62,-8.19 -30.04,-10.75 -17.52,-7.36 -42.22,-16.46 -56.21,-29 -2.19,-2.09 -8.08,-6.5 -6.03,-2.98 2.68,2.43 6.08,3.48 9.58,4.08 2.49,1.07 8.23,-0.68 10.54,-0.86 3.45,-0.28 7.27,-4.07 9.78,-5.41 3.46,-3.18 5.88,-6.41 7.48,-10.84 0.47,-0.67 0.81,-2.75 1.33,-3.64 0.6,-1.02 2.06,1.92 2.22,1.92 0.8,1.04 1.91,2.49 3.12,3.06 1.59,0.62 -0.3,-2.07 -1.53,-3.27 0.54,-0.62 -6.7,-3.7 -6.87,-3.8 -2.95,-1.67 -7.93,-0.71 -10.71,-0.97 -2.42,-0.23 -5.78,1.76 -7.98,2.44 -0.36,0.11 -2.06,1.26 -2.28,1.06 -0.14,-0.12 10.06,-11.6 11.18,-12.8 3.75,-4.01 7.32,-7.14 11.22,-10.87 4.63,-4.43 8.59,-6.08 13.52,-9.47 4.21,-2.88 10.03,-3.15 14.37,-4.5 8.14,-0.9 14.57,0.12 22.06,3.46 6.25,3.11 10.48,6.52 14.76,12 1.76,1.43 4.14,7.18 5.36,9.35 1.34,2.37 2.24,7.2 2.99,10 0.47,1.77 1.68,10.01 1.84,12.03 3.06,9.73 3.28,10.92 4.27,20.36 1.61,10.75 15.79,24.57 11.57,34.34 -7.75,13.18 -32.25,8.96 -43.62,4.54 -2.6,-0.78 -8.52,-4.82 -10.77,-6.56 -9.42,-6.78 -15.36,-14.18 -21.72,-23.8 -2.73,-2.83 -8.32,-15.98 -10.6,-20.46 -0.3,-0.66 -1.65,-3.36 -0.79,-0.64 0.88,2.22 1.89,3.89 3.3,5.84 3.45,4.49 7.13,7.37 12.22,9.9 6.35,2.89 11.94,3.79 18.86,3.06 2.59,0.42 8.09,-2.41 10.53,-3.1 0.75,-0.37 4.34,-2.7 2.87,-1.07 0.16,0.23 -8.86,10.09 -9.43,10.71 -2.54,2.76 -5.28,5.95 -7.92,8.53 -4.41,4.71 -8.38,8.07 -13.86,11.52 -6.39,3.82 -11.73,5.9 -19.08,7.22 -7.69,1.15 -13.7,0.84 -21.22,-1.16 -5.3,-0.3 -11.99,-5.9 -16.48,-8.16 -7.85,-6.2 -12.54,-11.99 -17.26,-20.74 -3.18,-3.75 -5.57,-15.47 -7.28,-20.19 -1.04,-2.88 -1.77,-10.85 -1.9,-14.1z"/>
     </g>
     <path class="fil1" d="M536.88 569.39c-25.6,-11.06 -33.72,-14.9 -46.18,-40.92 -12.33,-25.72 -1.19,-39.9 -38.62,1.37 -32.08,35.38 -50.25,-69.41 -16.06,-20.41 10.99,15.76 77.09,52.06 75.98,69.88"/>
     <g>
      <path class="fil2" d="M614.61 709.05c7.49,-5.23 13.04,-9.6 18.92,-16.58 0.51,-0.64 0.41,3.1 0.66,4.34 0.39,1.67 0.97,3.07 2,4.45l1.34 0.88c-22.67,-28.63 -36.03,-41.29 -38.37,-73.16l69.14 36.6c4.82,3.18 7.78,5.47 11.48,9.99 3.33,4.45 5.34,8.54 6.78,13.91 2.51,10.67 1.38,19.06 -2.27,29.27 -6.96,18.88 -18.1,31.72 -32.74,45.12 -14.19,12.53 -27.87,22.02 -45,30.1 -6.8,4 -16.87,5.33 -24.35,7.22 -5.29,1.33 -11.58,-0.14 -16.64,-0.32 -3.92,-0.13 -8.25,-2.7 -11.85,-3.89 -5.54,-2.83 -9.34,-5.78 -13.47,-10.46 -0.05,-0.04 -0.22,-0.25 -0.28,-0.32 -15.61,-18.26 -29.69,-33.63 -39.39,-55.97 -5.33,-12.79 -7.49,-22.54 -7.32,-36.42 -1.02,-9.83 10.45,-39.83 24.23,-38.53 10.22,2.23 18.37,20.22 25.33,29.17 0.48,1.11 3.5,4.72 4.44,5.78 2.59,2.43 5.36,4.61 8.11,6.86 14.02,11.44 32.29,25.52 42.83,39.99 -3.31,-3.74 -6.25,-6.1 -10.68,-8.38 -1.67,-1.3 -5.89,-2.01 -7.91,-2.68 -0.09,-0.03 -0.31,-0.06 -0.41,-0.08 -2.17,-0.37 -3.27,-0.26 -5.3,-0.26 1.42,0.03 5.5,-1.22 6.9,-1.66 1.07,1.72 30.41,-13.45 32.71,-14.34 0.24,-0.09 0.85,-0.48 1.11,-0.63z"/>
     </g>
     <path class="fil1" d="M518.53 655.38c-5.07,53.85 15.29,64.9 50.69,106.41 11.54,13.52 130.36,-48.46 88.79,-83.83 -0.65,-0.54 -45.15,-53.81 -45.22,-54"/>
     <g>
      <path class="fil2" d="M618.67 725.43c-1.35,0.19 -2.93,0.33 -4.25,0.59 -14.52,1.66 -25.07,0.42 -39.05,-2.77 -1.42,-0.08 -5.96,-1.76 -7.49,-2.45 -4.48,-2.02 -12.42,-3.54 -15.3,-6.71 -6.63,-8.47 -1.19,-20.02 4.59,-27.34 5.84,-5.69 11.29,-8.66 18.74,-11.8 7.95,-3.13 22.18,-6.7 27.76,-12.69 1.41,-0.9 27.95,-13.68 30.54,-14.42 0.45,-0.12 0.96,-0.34 1.42,-0.49 0.57,-0.18 2.33,-0.96 2.79,-0.57 0.03,0.03 -3.49,4.2 -3.56,4.77 -1.83,3.07 -3.01,6.33 -2.82,9.94 0.2,1.32 0.94,4.05 2.71,2.47 3.34,-0.12 9.26,-24.73 22.54,-29.71 12.14,-4.55 27.23,5.99 34.08,15.32 1.38,1.53 2.9,3.49 3.91,5.28 2.85,6.76 3.81,12.02 3.59,19.39 -0.81,9.09 -3.34,15.66 -8.46,23.2 -4.89,6.79 -9.72,11.09 -16.78,15.5 -2.76,2.54 -13.66,6.68 -17.55,7.85 -0.01,0 -0.03,0.01 -0.05,0.01 -8.03,3.3 -28.42,4.31 -37.36,4.63z"/>
     </g>
     <path class="fil1" d="M658.28 633.88c15.79,42.18 13.14,47.44 -49.61,58.02 -22.19,3.74 -43.72,-8.68 -65.86,11.44"/>
     <g>
      <path class="fil3" d="M887.85 265.69c0.4,0.9 2.28,5.85 2.52,6.17 7.52,21.69 8.13,38.26 4.63,60.73 -5.91,30.83 -18.36,58.73 -20.35,89.62 -1.42,40.86 -3.35,77.11 -23.8,113.58 -8.65,14.46 -17.55,25.51 -33.51,31.91 -2.31,1.94 -19.03,6.2 -22.29,1.79 -4.26,-5.77 10.84,-15.28 13.22,-18.09 8.44,-10.01 11.9,-16.33 16.49,-28.89 8.56,-33.54 4.5,-66.38 0.55,-100.3 -2.67,-40.2 6.91,-62.44 9.13,-99.03 0.37,-10.69 -0.3,-18.44 -5.2,-28.07 -7,-11.55 -16.96,-19.55 -27.85,-27.28 -16.49,-14.57 -50.81,-21.12 -71.55,-31.42 -24.91,-12.39 -42.61,-27.8 -63.7,-45.44 3,2.27 3.67,1.6 -0.18,0.27 -5.21,-1.83 -11.19,-2.83 -16.64,-3.58 -18.26,-2.65 -36.52,-3.35 -54.94,-3.78 -18.22,-3.11 -94.25,9.25 -103.52,-10.42 -11.34,-24.07 71.87,-43.05 83.14,-45.37 3.68,-0.86 12.62,-2.19 15.43,-3.25 22.24,-4.5 42.48,-6.96 65.21,-7.1 10.05,-0.51 19.96,1.87 29.82,3.17 11.88,2.86 20.38,6.29 30.1,13.94 17.77,14.41 33.75,26.44 54.64,35.87 30.29,13.37 48.69,18.05 75.96,41.05 18.33,15.47 33.38,31.42 42.69,53.92z"/>
     </g>
     <path class="fil1" d="M490.41 172.51c31.09,-14.65 172.61,-33.5 200.1,-9.78 71.69,61.85 80.79,37.76 132.15,77.86 76.25,59.54 19.99,111.26 19.99,181.62 0,34.27 -0.74,72.64 -15.45,101.54 -14.45,28.39 -27.75,24.43 -40.78,34.06"/>
     <g>
      <path class="fil3" d="M836.01 322.41c-3.65,6.6 -7.54,13.1 -13.41,17.98 -2.85,2.88 -5.33,4.9 -9.3,5.95 -1.97,1.2 -3.43,0.97 -5.29,1.49 -1.7,0.48 -8.81,4.31 -10.09,2.44 -0.74,-2.21 1.54,-3.02 -1.07,-9.13 -1.52,-1.74 -2.81,-3.46 -3.98,-5.46 -3.66,-4.31 -5.64,-7.81 -7.65,-13.11 -5.95,-10.37 -8.63,-19.94 -9.67,-31.81 -0.76,-2.82 1.3,-14.44 2.67,-17.55 9.12,-20.68 27.13,-13.84 43.59,-7.68 8.4,3.14 18.74,7.86 23.54,15.86 5.43,7.07 5.59,15.78 2.06,23.76 -2.25,5.11 -5.36,9.59 -8.63,14.08 -0.73,1.01 -1.91,2.24 -2.77,3.18z"/>
     </g>
     <path class="fil1" d="M822.8 265.91c-2.95,7.87 -30.83,70.85 -33.07,72.37"/>
     <g>
      <path class="fil3" d="M734.59 216.87c21.01,15.64 35.9,30.42 52.28,50.81 10.89,13.68 21.48,27.52 29.02,43.38 6,12.22 8.83,21.82 8.46,35.49 -0.77,6.16 -8.72,55.66 -10.63,57.17 -10.28,2.64 -25.16,-49.17 -27.98,-56.41 -2.36,-6.03 -5.4,-9.5 -9.26,-14.58 -1.6,-2.09 -31.5,-29.12 -31.96,-29.38 -33.68,-27.78 -59.17,-41.48 -101.37,-52.38 -13.07,-3.67 -25.06,-7.52 -37.59,-12.76 -16.54,-7.79 -133.96,-52.69 -136.48,-56.39 -2.56,-16.48 65.17,-32.19 76.35,-33.37 36.86,-5.76 62.16,8.5 94.94,21.7 4.12,1.66 22.4,9.03 25.21,9.28 26.98,9.39 46.43,19.91 69.01,37.44z"/>
     </g>
     <path class="fil1" d="M468.92 180.78c115.79,-18.01 97.08,7.03 185.35,34.72 44.13,13.84 78.05,38.95 107.21,73.57 56.43,67.02 20.23,48.38 38.17,118.26"/>
     <g>
      <path class="fil4" d="M872.89 345.38c2.07,15.78 1.59,28.05 -3.13,43.34 -3.68,10.73 -8.02,18.44 -15.69,26.82 -3.76,5.64 -25.35,19.24 -31.36,10.41 -3.14,-6.04 0.54,-23.03 0.19,-32.18 0.71,-3.65 -2.07,-13.76 -3.49,-17.41 -2.84,-7.31 -11.17,-20.26 -16.05,-26.56 -3.58,-4.62 -8.22,-11.65 -10.76,-16.91 -8.96,-18.52 -18.09,-48.98 -0.33,-65.41 9.93,-9.19 23.8,-7.32 34.92,-1.45 15.51,6.22 28.25,21.34 35.18,36.16 4.41,9.61 6.98,18.28 8.89,28.68 0.67,1.47 1.53,12.31 1.63,14.51z"/>
     </g>
     <path class="fil1" d="M793.04 266.77c33.85,36.59 74.21,111.32 21.5,147.17"/>
     <g>
      <path class="fil3" d="M834.31 369.25c3.06,7.99 4.73,14.58 5.16,23.16 1.58,9.39 -4.48,35.93 -18.11,30.34 -9.49,-4.94 -13.74,-11.9 -29.76,-19.44 -7.54,-2.59 -14.75,-5.12 -21.79,-8.92 -2.02,-0.66 -7.29,-5.23 -8.55,-7.21 -9.17,-14.53 4.22,-32.12 14.48,-41.96 7.32,-7.03 16.62,-12.4 27.11,-11.18 9.83,-0.09 18.49,5.44 23.61,13.67 2.87,4.79 4.57,9.02 6.21,14.34 0.51,1.03 1.4,5.84 1.64,7.2z"/>
     </g>
     <path class="fil1" d="M776.5 344.49c13.45,14.01 39.52,52.98 31.42,72.76"/>
     <g>
      <path class="fil5" d="M1020.22 912.3c6.32,12.25 11.66,24.98 17.81,37.07 15.2,34.41 36.45,82.54 37.17,120.41 -0.97,64.4 13.06,77.44 -0.65,150.01 -3.77,4.59 -1.11,45.8 -10.67,47.45 -9.88,0 -12.15,-45.69 -15.54,-51.39 1.74,-69.76 -19.29,-82.55 -24.68,-146.96 0.19,-7.41 -41.95,-93.12 -42.77,-93.21 -10.36,-18.71 -20.89,-36.81 -33.1,-54.39 -8.17,-12.14 -20.34,-24.09 -16.89,-20.93 -11.26,-7.45 -17.39,-15.34 -23.1,-27.4 -3.51,-3.99 -6.39,-21.87 -8.21,-27.33 -3.93,-11.77 -3.78,-38.04 -5.42,-51.61 -0.73,-6.03 -0.91,-12.42 -1.6,-18.56 -0.66,-5.83 -1.84,-10.25 -2.8,-15.73 -0.89,-2.78 0.08,-0.55 1.78,1.05 1.92,1.71 3.69,2.73 6.08,3.68 1.51,0.91 4.5,0.92 6.2,1.08 -19.55,-0.45 -36.36,-1.83 -54.75,-8.92 -8.36,-3.37 -14.13,-6.66 -21.02,-12.51 -6.24,-5.62 -10.27,-10.77 -14.06,-18.27 -0.82,-1.91 -11.03,-32.64 -6.12,-29.99 1.1,-1.13 -17.21,-20.07 -19.63,-23.13 -4.04,-3.12 -6.18,-2.9 -11.4,-2.52 -12.88,1.32 -19.89,3.1 -33.24,0.48 -6.4,-0.31 -14.8,-7.03 -19.93,-10.2 -4.22,-2.6 -16.05,-20.57 -10.76,-25.86 4.16,-3.11 17.26,1.13 23.77,1.53 3.56,1.14 6.88,-0.34 9.99,-0.86 3.53,-0.59 13.66,-6.94 17.79,-8.53 14.13,-6.19 24.74,-7.52 40.02,-4.14 2.38,-0.26 14.05,4.62 16.59,5.9 14.26,7.08 24.13,15.83 35.07,27.28l18.43 38.31c0.39,-0.2 -1.79,-3.19 -1.86,-3.32 -0.74,-1.04 -0.83,-1.06 0.6,-0.79 11.15,1.09 19.08,1.45 30.51,1.18 7.94,0.02 13.88,1 21.35,3.75 7.28,2.91 12.33,6.14 18.13,11.38 9.18,8.99 13.85,17.19 18.2,29.14 3.88,5.89 7.31,35.75 7.93,43.99 0.2,2.71 0.2,7.81 0.65,10.16 0.76,14.71 1.07,29.82 2.87,44.41 0.34,3.64 1.34,6.67 2.05,10.11 0.03,0.24 -2.67,-2.83 -5.01,-4.33 16.66,12.2 26.53,28.67 36.71,46.27 2.01,2.18 11.58,22.24 13.51,26.24z"/>
     </g>
     <path class="fil1" d="M713.66 633.88c50.08,50.11 61.26,-28.35 119.07,41.35 17.72,21.36 -9.15,52.91 71.1,52.91 45.34,0 14.57,122.25 46.17,142.64 27.22,17.58 93.33,164.2 92.74,198.44 -1.14,65.88 18.07,69.65 6.48,146.76 -0.8,5.31 0.14,42.66 0.14,51.26"/>
     <g>
      <path class="fil5" d="M307.99 1014.12c-4.51,16.31 -4.06,27.99 -5.12,44.62 -0.59,55.41 2.82,93.04 -7.09,149.14 -2.26,10.2 -9.14,53.26 -24.01,46.13 -13.72,5.19 -6.93,-36.97 -7.36,-49.66 -3.56,-52.08 -16.4,-94.67 -22.04,-145.61 -1.68,-36.53 4.01,-55.94 3.79,-85.45 -0.84,-22.84 18.24,-74.2 26.95,-97.11 2.77,-7.25 10.56,-31.92 10.19,-25.26 3.67,-21.6 10.21,-36.67 24.4,-53.37 12.55,-13.7 23.95,-21.42 40.58,-29.35 10.03,-6.38 79.93,-26.52 88.7,-11.2 8.52,14.9 -43.09,49.22 -52.17,56.46 -1.89,1.66 -4.03,3.85 -5.92,5.35 -7.07,6.57 -12.71,12.34 -17.34,20.9 -3.64,4.43 -3.95,15.04 -4.9,20.27 -3.55,19.64 -8.25,32.67 -15.38,51.32 -8.94,23.34 -17.17,44.26 -24.55,68.25 -1.79,13.62 -4.29,21.88 -8.73,34.57z"/>
     </g>
     <path class="fil1" d="M437.5 757.91c-46.5,26.61 -109.95,38.38 -117.27,97.57 -1.85,14.97 -37.39,93.36 -39.83,120.85 -2.41,27.13 -11.58,30 -11.58,82.41 0,55.61 6.66,85.59 -0.14,146.09 -2.2,19.49 -11.43,46.43 -11.43,49.18"/>
     <g>
      <path class="fil5" d="M718.99 778.13c-2.94,1.56 -42.13,24.9 -31.59,14.7 -1.1,-1.36 -25.81,30.39 -27.85,32.35 -6.71,7.73 -12.85,14.04 -21.15,20.1 -4.02,3.43 -27.82,16.09 -30.82,7.39 -0.61,-3.82 9.83,-20.82 12.21,-26.02 0.95,-1.39 7.69,-21.22 8.25,-23.5 5.77,-17.39 10.87,-33.21 20.88,-48.79 6.25,-14.01 55.24,-44.54 68.73,-56.72 4.81,-3.94 9.64,-7.9 13.96,-12.38 3.93,-3.83 2.07,-3.59 -0.68,1.9 -1.38,2.92 -2.06,5.84 -2.49,9.02 -0.3,1.09 -0.23,4.73 -0.15,5.96 0.25,3.24 0.75,5.69 1.77,8.78 1.85,5.1 4.22,9 8.05,12.85 1.33,2.11 5.93,4.29 7.94,5.68 6.26,2.68 6.82,1.08 -2.62,0.64 -7.19,-0.03 -12.59,-1.12 -19.23,-3.88 -6.52,-3.01 -10.89,-6.12 -15.79,-11.37 -4.7,-5.33 -7.45,-10.01 -9.76,-16.74 -2.78,-4.8 -1.69,-13.8 -1.96,-19 -0.29,-5.48 4.63,-17.43 6.24,-23.11 0.23,-0.64 1.01,-3.29 1.95,-3.17 0.27,-0.13 2.39,4.51 2.78,4.76 1.78,2.66 4,4.96 7.02,6.16 1.32,0.32 3.54,0.39 2.21,-1.51 0.9,-4.01 -23.07,-15.38 -23.07,-25.64 0,-11.91 25.94,-19.77 35,-20.38 6.16,0.47 10.78,1.65 16.32,4.46 6.31,3.8 10.33,7.98 13.9,14.43 0.02,0.03 0.04,0.07 0.06,0.1 3.03,5.62 4.32,10.01 5.33,16.26 1.15,3.3 0.59,9.37 1.24,12.65 0.7,3.55 1.42,16.95 1.36,20.81 0.5,-3.79 0.25,-6.73 -0.79,-10.42 -0.24,-3.19 -3.79,-7.02 -5.11,-9.43 -1.57,-2.87 -6.49,-4.85 -8.68,-6.5 -3.69,-1.64 -6.74,-2.33 -10.77,-2.46 14.18,-0.88 24.42,-0.64 37.77,5.06 3.63,0.77 9.35,6.53 12.27,8.59 4.99,5.08 7.89,9.68 10.35,16.37 2.15,6.62 2.73,11.92 2.04,18.83 0.4,3.65 -2.86,10.2 -3.81,13.66 -0.16,0.56 -1.09,2.25 -1.41,2.86 -5.37,9.45 -10.99,15.11 -19.31,21.88 -2.07,2.63 -19.19,13.03 -22.96,15.2 -12.3,7.09 -24.79,13.52 -37.63,19.57z"/>
     </g>
     <path class="fil1" d="M693.82 635.54c59.98,0 38.03,14.45 38.03,57.88 103.9,-8.16 -59.43,67.69 -67.8,76.06 -19.85,19.86 -35.81,60.73 -61.19,69.46"/>
     <g>
      <path class="fil5" d="M536.79 780.22c4.77,2.15 9.26,3.72 14.31,5.06 3.72,2.42 29.75,4.84 35.8,6.14 8.02,1.73 28.25,-1.17 33.71,6.12 9.67,16.49 -20.05,32.24 -31.09,36.89 -16.65,6.22 -31.58,8.43 -49.19,9.71 -35.41,-0.46 -64.55,-12.08 -89.48,-37.37 -0.65,-0.7 -5.56,-6.48 -5.64,-6.53 -18.39,-25.72 -43.27,-97.33 -2.15,-103.52 11.57,0 24.68,16.79 31.52,24.92 3.02,2.93 28.33,28.94 28.71,29.8 0.08,0.16 4.55,4.7 5.08,5.24 8.71,8.93 17.77,16.96 28.42,23.54z"/>
     </g>
     <path class="fil1" d="M444.11 696.72c0,58.13 46.9,112.07 100.88,121.95 26.27,4.81 62.34,6.97 84.33,-9.5"/>
     <g>
      <path class="fil5" d="M556.48 1029.85c-0.08,2.69 -0.04,5.32 -0.05,8 -1.89,49.38 -18.58,105.12 -22.23,159.1 -0.71,10.8 -7.36,65.76 -24.3,68.64 -13.08,-2.29 -10.57,-52.96 -12.72,-67.38 -8.5,-46.63 0.53,-137.35 -5.53,-158.15 -5.11,-12.46 1.97,-84.77 1.13,-105.94 -0.23,-5.57 -0.56,-10.84 -1.64,-16.32 -0.65,-3.24 -1.46,-6.09 -2.83,-9.1 -0.49,-2.35 -3.98,-5.65 -5.1,-7.43 -2.28,-3.62 -9.31,-6.83 -12.58,-9.29 -8.47,-4.17 -13.67,-8.52 -19.85,-15.51 -2.11,-1.61 -8.42,-11.64 -10.3,-14.48 -4.34,-6.58 -8.16,-14.02 -12.4,-20.79 -1.2,-1.91 -1.28,-1.86 -1.67,-3.92 0.27,-1.14 0.76,-1.79 -0.25,-2.74 -1.37,-2.52 -9.71,-0.23 -9.97,-0.3 -4.38,-1.26 -24.3,9.24 -30.81,3.73 -8.03,-6.8 5.17,-28.08 9.21,-33.97 7,-7.33 13.14,-11.85 22.68,-15.49 9.54,-2.8 16.96,-2.99 26.66,-0.8 3,-0.06 13.89,5.34 16.8,7.11 0.97,0.54 4.17,2.73 4.8,2.97 6.57,2.47 21.46,19.2 27.45,24.59 2.71,2.43 4.71,4.49 7.6,6.9 2.32,1.5 0.3,-0.76 -1.81,-1.95 12.92,4.85 22.43,9.91 33.3,18.47 9.99,8.43 16.57,16.23 23.05,27.59 5.72,6.86 11.23,30.29 12.34,39.56 0.84,7.56 1.13,14.51 0.98,22.11 2.34,10.28 -10.61,77.25 -11.96,94.79z"/>
     </g>
     <path class="fil1" d="M384.58 837.29c58.23,-68.81 76.44,11.53 100.31,21.92 74.65,32.49 34.52,108.58 36.94,179.82 0.84,24.73 -18.37,104.84 -16.53,158.9 1.04,30.68 -9.92,48.74 -9.92,67.66"/>
     <g>
      <path class="fil5" d="M955.12 895.78c19.67,42.67 32.37,81.85 33.32,129.21 1.1,46.54 19.84,112.7 27.74,161.54 1,7.74 2.83,63.85 -6,69.38 -12.32,4.23 -18.52,-54.52 -23.07,-61.85 -20.47,-42.24 -46.25,-122.64 -54.04,-168.33 -5.97,-38.93 -20.78,-72.24 -40.1,-106.26 -18.9,-31.39 -40.59,-61.47 -70.62,-83.12 2.95,2.09 10.25,4.35 3.6,3.34 -5.98,-0.77 -12.06,-1.18 -18.08,-1.49 -3.36,-0.3 -7.1,-0.32 -10.5,-0.43 -15.5,-0.54 -31.28,0.17 -46.53,-0.39 -17.97,-0.66 -38.27,1.18 -56.46,1.8 -5.68,0.19 -11.88,0.97 -17.59,1.54 -0.44,0.04 -2.47,0.54 -2.62,0.21 3.66,-1.89 5.14,-2.81 8.36,-5.77 0.05,-0.11 -30.28,27.16 -40.64,36.23 -3.18,2.79 -7.33,7.13 -10.51,10.22 -5.17,5.03 -12,9.07 -19.07,10.57 -11.62,-0.47 -90.24,-25.55 -93.79,-32.35l81.11 -17.57 -6.37 2.3c-0.31,-0.41 5.51,-8.55 5.51,-8.68 0,-0.01 0.33,-0.58 0.37,-0.64 9.49,-18.42 24.02,-32.93 37.49,-48.28 5.02,-4.6 9.03,-6.93 15.26,-9.37 2.03,-1.31 8.14,-2.49 10.65,-3.43 7.32,-2.74 16.64,-3.09 23.91,-5.04 17.27,-4.63 43.89,-4.84 62.11,-6.65 18.53,-1.84 43.32,-1.43 62.07,-0.38 0.6,0.03 1.25,0.1 1.84,0.11 8.87,0.13 17.75,1.85 26.48,2.92 11.42,2.12 18.98,4.37 28.74,11.18 38.88,31.55 62.94,68.64 84.6,113.3 0.45,0.57 2.37,5.16 2.83,6.18z"/>
     </g>
     <path class="fil1" d="M518.53 858.78c130.69,1.67 54.76,33.5 140.56,-48.24 11.03,-10.5 168.65,-16.94 185.78,-4.01 57.04,43.07 109.43,147.38 110.37,218.9 0.46,34.33 25.49,131.07 35.01,167.82 5.42,20.89 -0.71,47.31 6.19,67.38"/>
     <g>
      <path class="fil5" d="M871.57 737.27c7.67,4.91 14.35,9.68 21.32,15.56 8.74,7.55 15.08,14.18 21.62,23.75 6.84,10.54 10.62,19.29 12.87,31.68 -8.93,-17.06 12.15,25.83 0.1,32.51 -9.91,1.87 -28.16,-15.54 -37.9,-21.98 -3.82,-4.93 -9.68,-8.71 -15.09,-11.7 -1.55,-1.19 -16,-7.12 -18.09,-7.62 -15.92,-5.03 -31.65,-9.44 -47.4,-15.13 -6.54,-2.85 -12.57,-4.77 -19.09,-8.16 -12.95,-6.74 -21.36,-13 -32.41,-22.31 -13.08,-11.03 -41.28,-49.63 -18.29,-63.22 9.47,-5.6 27.8,-1.41 37.74,1.41 4.5,0.78 13.7,2.77 17.65,4.5 11.85,3.51 22.14,7.83 33.16,13.41 4.72,2.44 10.88,5.53 15.22,8.42 9.78,6.51 18.99,11.59 28.59,18.88z"/>
     </g>
     <path class="fil1" d="M740.12 690.11c32.36,54.72 143.14,67.8 158.75,125.82 0.04,0.13 12.38,22.41 14.89,29.62"/>
     <g>
      <path class="fil5" d="M537.61 1247.14c2.61,1.65 6.86,5.12 9.11,6.31 11.46,8.96 18.8,17.11 24.67,30.62 3.15,8.17 4.31,14.96 3.94,23.72 -0.66,8.87 -2.54,15.36 -6.51,23.3 -4.41,8.13 -9.35,13.16 -17.21,17.93 -2.53,2.67 -12.85,4.92 -16.35,6.31 -7.1,2.81 -20.85,1.72 -28.43,2.55 -20.52,-0.31 -40.89,-2.24 -61.35,-3.73 -19.49,-1.36 -38.71,-2.46 -58.23,-0.88 -6.49,0.08 -12.56,2.2 -18.67,3.5 -1.83,0.39 -5.25,2.66 -5.83,2.78 -1.45,0.3 -8.85,11.05 -9.02,11.07 0,0 0.85,-4.1 0.72,-4.34 0,-3.65 -0.63,-6.43 -2.32,-9.67 -0.33,-1.37 -2.47,-3.25 -3.4,-4.27 -0.01,0 2.55,1.48 2.55,1.49 -0.43,0.98 22.51,7.41 23.83,7.95 -13.03,-1.94 56.27,3.79 94.1,8.77 21.27,3.04 42.97,6.37 63.07,14.25 5.17,1.38 9.42,5.09 13.97,7.64 3.2,1.79 5.29,5.1 7.84,7.59 3.4,4.43 5.27,8.35 6.63,13.78 1.32,6.42 1.14,11.4 -0.72,17.69 -0.15,3.75 -5.38,9.62 -7.01,12.53 -4.93,5.49 -9.16,8.4 -15.58,11.84 -7.94,3.91 -14.26,5.19 -23,5.72 -3.51,0.95 -16.12,-0.91 -20.37,-1.17 -12.41,-0.74 -29.69,-6.26 -42.23,-8.94 -23.82,-6.07 -52.12,-14.31 -76.52,-16.17 -7.42,-1.21 -82.71,-3.39 -82.34,-11.34 0.37,-7.8 72.64,-8.81 81.75,-11.18 26.61,-2.95 57.69,3.1 84.1,7.26 13.21,2.08 25.93,4.05 39.31,4.74 4.88,0.58 9.33,-0.15 14.05,-0.31 3.28,-0.11 4.63,-1.13 7.28,-2.21 0.95,-0.39 3.34,-2.24 3.89,-3.24 -0.3,0.21 -0.43,0.52 -0.56,0.86 -0.35,-0.1 -0.21,2.61 -0.22,2.78 -0.04,0.47 0.49,1.33 0.64,1.75 0.12,0.38 -0.32,-0.13 -0.4,-0.07 -0.01,0 -4.68,-2.09 -5.22,-2.1 -16.5,-4.45 -36.86,-6.27 -53.9,-7.71 -35.85,-2.95 -66.96,-2.01 -100.86,-3.81 -12.26,-2.25 -21.99,-5.82 -33.6,-9.58 -4.79,-1.55 -9.05,-4.98 -13.23,-7.4 -4.76,-3.7 -7.8,-6.96 -10.86,-12.2 -3.09,-5.91 -4.21,-10.55 -4.23,-17.21 0.19,-5.96 1.32,-10.38 3.56,-15.87 4.54,-10.42 10.38,-18 17.76,-26.53 8.2,-8.92 16.26,-13.82 27.43,-18.29 5.75,-4.04 24.79,-5.79 31.74,-7.76 23.3,-2.96 44.64,-2.77 68.02,-2.12 18.93,0.68 38.53,1.89 57.43,1.22 5.14,0.02 9,-0.69 13.9,-1.65 0.7,-0.23 -0.73,0.16 -1.45,0.52 -3.41,1.95 -5.62,4.56 -7.53,7.97 -0.29,0.29 -0.79,2.38 -0.82,2.39 -0.45,0.09 0.34,3.8 0.35,4.09 0.46,1.7 -2.6,-1.53 -4.19,-2.65 -13.49,-8.58 -30.19,-14.06 -45.4,-18.72 -19.45,-5.69 -38.6,-10.14 -58.39,-14.39 -7.29,-1.94 -15.26,-3.32 -22.69,-5.1 -3.14,-0.75 -6.12,-1.66 -9.2,-2.55 -6.12,-2.08 -9.64,-3.85 -14.89,-7.98 -15.07,-12.83 -25.43,-24.37 -32.32,-43.22 -2.88,-9.02 -3.81,-16.44 -3.17,-25.89 0.82,-8.5 2.51,-14.7 5.89,-22.51 11.47,-23.06 19.15,-25.18 32.19,-42.19 10.83,-13.33 21.03,-21.32 36.82,-28.11 13.99,-5.47 25.19,-7.26 40.12,-7.4 24.3,0.62 41.87,5.26 64.71,12.41 7.67,2.46 15.46,5.18 23.22,7.3 3.25,0.85 5.94,0.67 1.44,0.87 -5.87,0.44 -10.35,2.44 -15.19,5.76 -3.15,1.14 -6.58,7.25 -8.68,9.56 -2.03,2.23 -2.8,7.3 -3.79,9.91 -0.8,2.12 -0.31,5.54 -0.21,7.78 -0.28,-1.35 -1.07,-3.34 -1.58,-4.61 -7.56,-18.06 -15.93,-34.56 -31.86,-46.55 -10.96,-7.31 -20.14,-9.31 -33.12,-10.35 -3.7,-1.32 -39.02,0.62 -46.32,0.32 -10.71,-0.28 -19,-1.24 -29.3,-4.5 -13.39,-4.75 -22.15,-10.97 -30.75,-22.36 -6.16,-8.97 -9.64,-16.49 -11.75,-27.21 -1.68,-10.01 -1.33,-17.92 1.14,-27.74 4.67,-15.77 11.62,-25.98 22.84,-37.72 4.84,-8.37 33.39,-25.97 43.11,-32.45 27.07,-17.7 49.07,-19.98 80.16,-22.32 0.5,-0.19 8.18,-0.87 9.67,-1.04 2.07,-0.3 -0.93,1.14 -2.59,2.63 -2.72,2.55 -4.24,5.12 -5.53,8.6 -1.12,3.57 -1.4,6.6 -0.71,10.28 1.06,3.9 2.51,4.65 0.6,1.75 -15.26,-20.46 -28.19,-36.02 -51.14,-47.76 -10.19,-8.82 -76.79,-16.29 -77.06,-23.63 5.67,-14.7 73.77,-13.09 88.17,-10.71 34.29,8.21 54.78,25.48 78.29,51.05 5.53,6.45 9.01,11.87 11.01,20.27 1.04,5.8 0.79,10.26 -1.02,15.89 -1.95,5.35 -4.45,9.07 -8.61,12.93 -5.77,4.99 -10.73,7.26 -17.91,9.47 -2.9,1.66 -12,2.47 -15.44,3.65 -4.38,1.5 -14,2.71 -19.13,3.84 -11.19,2.71 -22.97,5.79 -31.86,13.49 -11.62,9.77 -22.25,16.59 -32.61,28.29 -1.67,1.63 -5.44,7.16 -5.47,9.68 0.4,-0.21 0.39,-1.08 0.41,-1.49 0,-0.97 -0.07,-0.99 0.69,-0.21 0.3,-0.12 -3.23,-3.26 -3.23,-3.26 0,0 7.97,0.45 8.45,0.18 1.62,-0.92 45.06,-2.35 49.17,-2.36 28,1.1 47.49,6.22 71.5,21.22 30.59,21.21 45.95,45.85 60.49,79.6 1.6,1.97 4.64,14.19 5.58,17.25 1.67,8.06 1.98,14.13 0.62,22.32 0.06,4.74 -3.96,10.55 -5.54,14.75 -3.41,5.5 -6.61,9.05 -11.77,12.96 -8.28,5.69 -15.15,8.01 -25.07,8.8 -19.73,0.28 -34.34,-5.7 -52.69,-11.64 0,0 -0.07,-0.03 -0.08,-0.03 -13.65,-4.36 -27.59,-8.7 -42.02,-9.22 -3.88,-0.65 -7.83,0.93 -11.33,1.54 -2.83,0.49 -4.74,3.6 -6.42,4.77 -5.95,7.08 -19.92,19.94 -23.81,26.46 -0.05,0.06 0.3,-1.6 0.22,-1.63 0.06,-1.1 -0.02,-1.8 -0.33,-2.85 -0.03,-0.06 2.56,4.6 9.4,10.74 -2.39,-1.89 -5.52,-4.2 -8.5,-5.18 0.02,-0.03 4.31,1.31 4.54,1.41 4.64,2.05 15.53,3.91 20.97,5.49 21.18,6.13 41.76,11.87 62.97,18.27 17.03,5.15 39.67,15.24 54.61,24.87z"/>
     </g>
     <path class="fil1" d="M333.32 855.48c68.68,-2.54 103.34,0.56 148.4,56.08 26.13,32.19 -45.36,13.02 -82.68,41.48 -13.13,10.01 -72.5,43.75 -46.3,79.52 27.59,37.69 126.01,-39.48 178.45,89.73 28.02,69.04 -92.59,-39.79 -143.16,23.81 -15.79,19.86 -56.57,43.58 -8.83,84.19 8.58,7.31 185.61,32.92 158.89,85.05 -12.8,24.96 -161.72,-19.28 -199.67,21.64 -28.88,31.14 -21.43,43.5 28.87,56.08 0.71,0.18 208.69,9.04 156.34,37.05 -22.41,11.99 -103.55,-20.18 -148.97,-19 -7.31,0.19 -70.55,-1.16 -81.03,-1.65"/>
     <g>
      <path class="fil5" d="M253.54 1063.45c19.35,-45.47 18.38,-63 55.05,-105.05 14.19,-14.44 28.51,-36.73 39.07,-54.07 12.78,-21.44 20.11,-38.15 30.99,-59.34 1.19,-4.87 7.57,-24.74 16.37,-21.34 3.86,2.13 0.23,17.98 1.38,23.11 6.31,22.68 -5.13,55.63 -12.82,76.82 -9.47,24.37 -20.91,49.2 -35.26,71.1 -30.79,45.79 -22.66,74.06 -40.21,105.84 1.37,0.86 -13.81,51.62 -14.87,56.5 -3.64,17.33 -6.83,34.62 -8.95,52.2 -0.07,0.64 -0.64,6.79 -0.68,6.79 -0.29,30.26 -17.99,198.76 -56.73,210.03 -18.34,-0.77 -18.77,-70.13 -18.63,-81.46 -0.8,-42.47 2.01,-82.19 -0.34,-125.34 -0.14,-9.81 0.37,-17.52 1.81,-27.25 2.79,-18.23 6.75,-35.53 11.49,-53.35 8.08,-28.93 17.03,-59.42 36.78,-82.72 0.33,-0.56 -4.87,6.33 -4.45,7.53z"/>
     </g>
     <path class="fil1" d="M225.83 1426c2.87,-68.62 23.28,-127.72 19.84,-208.37 -0.95,-22.27 20.03,-117.46 38.6,-138.34 4.4,-4.94 15.24,-62.14 48.62,-98.7 22.64,-24.79 64.41,-96.4 68.09,-133.38 0.84,-8.49 3.22,-10.15 6.75,-16.54"/>
     <g>
      <path class="fil5" d="M443.38 1113.41c14.86,11.52 26.01,23.56 37.89,38.07 5.56,7.04 8.53,13.12 10.49,21.9 1.54,8.51 1.25,15 -0.93,23.35 -3.99,12.86 -9.58,20.75 -18.67,30.42 -16.39,16.09 -33.95,27.13 -53.61,38.69l-85.76 46.95 3.38 -6.62c-0.64,1.44 -1.05,4.83 -1.23,6.42 -1.09,2.02 -1.36,23.09 -2.04,27.13 -0.44,7.55 -2.83,61.51 -15.63,61.26 -3.41,-1.18 -12.39,-57.3 -12.34,-60.74 -1.63,-9.84 -3.24,-19.48 -4.36,-29.4 -0.35,-4.01 -0.26,-7.81 -0.17,-11.8 0.44,-3.96 1.16,-7.1 3.42,-10.46 13.85,-21.4 64.8,-52.38 87.07,-68.23 12.73,-9.4 28.77,-21.36 38.22,-34.1 1.91,-2.51 4.14,-7.78 2.68,-5.58 -0.75,1.52 -0.81,3.52 -0.62,5.17 -0.26,1.48 1.73,4.82 1.77,5.34 -10.09,-10.67 -23.03,-23.63 -37.08,-28.9 -4.51,-1.83 -6.84,-2.43 -11.41,-1.08 -0.58,-0.04 -17.26,4.96 -19.88,5.39 -9.26,1.37 -15.96,1.06 -25.02,-1.63 -10.37,-3.56 -17.18,-8.4 -24.45,-16.52 -7.45,-8.66 -11.98,-16.12 -15.27,-27.13 -2.97,-11.88 -2.72,-21.3 1.01,-32.97 3.42,-9.51 7.61,-16.08 14.36,-23.51 2.59,-4.35 12.85,-10.88 16.77,-14.45 5.43,-4.94 22.24,-13.57 29.5,-17.39 7.53,-3.96 15.42,-7.88 22.42,-12.74 17.3,-13.42 50.32,-38.31 47.37,-33.03 0,0 -2.54,4.81 -2.68,5.08 -1.72,3.21 -1.33,6.87 -1.94,9.98 -0.61,3.14 1.31,7.37 1.82,10.15 0.25,1.35 2.08,3.96 2.91,5.19 3.5,3.59 -8.06,-7.72 -10.07,-9.33 -14.73,-11.75 -29.18,-23.55 -41.47,-37.9 -5.91,-5.61 -8.9,-11.89 -13.39,-18.09 -4.73,-6.53 -5.48,-14.06 -7.52,-21.23 -1.45,-15.72 2.05,-25.73 9.35,-39.3 1.14,-4.43 28.8,-37.2 36.86,-33.44 7.36,5.64 0.35,37.72 -0.52,47.33 -0.66,3.83 -2.29,12.17 1.34,15.05 0.04,0.13 2.99,2.46 3.16,2.56 2.24,1.43 6.61,5.7 8.56,6.56 0.34,0.14 1.13,0.71 1.49,0.93 12.51,7.05 28.9,15.96 40.27,23.95 10.88,6.87 19.8,12.44 28.16,22.5 2.69,2.56 4.47,7.92 6.22,11.08 1.99,5.36 2.82,9.89 2.82,15.62 0.84,4.67 -2.28,11.3 -3.1,15.42 -1.71,4.12 -3.47,7.24 -6.08,10.84 -4.65,11.67 -46.42,38.44 -56.32,48.9 -7.56,7.99 -32.65,20.42 -43.38,26.26 -4.03,2.19 -9.28,4.94 -12.94,7.62 -1.75,1.28 -3.26,2.46 -4.96,3.77 -0.34,0.27 1.86,-3.22 1.55,-3.42 1.13,-3.57 1.29,-6.97 0.33,-10.6 -0.63,-2 -1.82,-3.35 -0.55,-1.59 -2.38,-2.45 -5.24,-3.99 -8.46,-5.07 -1.83,-1.13 -6.1,-0.92 -8.26,-0.84 0,0 22.42,-4.69 22.67,-4.03 19.45,-1.32 33.44,2.36 50.62,11.47 1.83,0.42 13.55,9.1 15.63,10.77z"/>
     </g>
     <path class="fil1" d="M406.08 858.78c-31.81,68.13 -39.36,69.38 34.72,122.1 39.1,27.81 22.45,24.17 -33.21,68.88 -26.75,21.49 -96.33,38.18 -64.92,75.41 21.79,25.82 42.82,-36.2 112.07,48.1 29.55,35.97 -123.41,95.87 -144.29,120.85 -8.77,10.49 1.32,78.37 -6.9,102.11"/>
     <g>
      <path class="fil5" d="M476.97 1101.45c-0.6,9.68 -3.56,23.92 -3.25,32.69 -1.41,15.68 -3.88,27.77 -9.96,42.36 -6.24,13.93 -13,23.67 -24.25,34.03 -11.23,9.8 -21.35,15.37 -35.31,20.44 -13.95,4.67 -25.9,6.66 -40.52,7.74 -6.12,0.42 -11.14,1.24 -16.7,3.89 -4.21,2.27 -6.7,4.48 -9.61,8.29 -8.68,12.36 -11.35,27.54 -13.23,42.24 -4.93,10.6 3.55,124.6 -9.38,124.6 -15.85,-6.66 -28.66,-112.5 -29.61,-127.46 -0.28,-24.28 1.66,-43.63 12.91,-65.59 6.51,-11.19 13.11,-18.41 23.79,-25.79 12.38,-8.05 22.91,-11.48 37.45,-13.75 9.29,-1.65 17.05,-3.58 25.59,-7.67 5.95,-2.93 10.26,-5.76 14.64,-10.77 3.7,-2.83 5.65,-10.67 7.55,-14.2 2.54,-4.74 2.13,-17.7 2.83,-22.99 0.64,-15.08 1.26,-35.04 0.74,-32.79 0.07,1.27 1.2,4.5 0.71,4.14 -0.16,0.06 -10.32,-9.93 -11.09,-10.42 -12.09,-11.52 -23.43,-22.82 -33.85,-35.9 -8.71,-11.88 -14.47,-21.55 -17.14,-36.28 -1.21,-9.43 -0.36,-16.78 3.14,-25.65 3.79,-8.5 8.29,-14.18 15.65,-19.83 9.96,-7.01 18.11,-9.76 29.84,-12.15 4.06,-1.85 32.46,-4.52 40.65,-6.24 1.82,-0.39 4.63,-1.18 6.31,-2.06 0.17,-0.08 0.07,-0.04 0.08,-0.03 -1.76,1.28 -2.98,3.2 -3.68,5.24 0.91,-2.64 0.42,-3.28 1.12,-0.6 0.35,1.12 1.34,3.5 2.43,4.09 -2.55,-3.78 -19.57,-9.05 -23.97,-10.36 -0.37,-0.37 -42.94,-12.12 -47.63,-13.59 -9.12,-3.11 -16.83,-6.29 -25.08,-11.35 -10.84,-6.81 -17.73,-13.76 -23.24,-25.46 -3.05,-7.54 -4.65,-13.47 -5.37,-21.6 -0.54,-7.91 0.1,-13.89 2.47,-21.45 4.36,-12.08 10.25,-19.63 20.31,-27.41 2,-2.78 14.85,-8.58 18.51,-10.81 7.99,-4.83 4.14,-0.37 4.36,-0.06 9.43,-12.71 43.63,-51.58 64.84,-43.45 8.06,9.87 -21.29,57.64 -25.87,66.6 -4.53,8.06 -9.16,12.04 -16.11,17.75 -3.57,3.01 -8,6.54 -10.92,10.14 -0.3,0.31 -2.51,3.88 -1.04,3.1 0.05,-0.02 0.49,-0.32 0.49,-0.32 0.02,0.02 0.84,-0.96 1.24,-1.07 0.51,-0.15 2.16,2.66 2.31,2.71 -0.88,-2.44 -2.83,-4.53 -0.72,-3.89 0.08,-0.08 11.21,2.84 12.18,2.89 15.64,2.82 31.16,4.82 46.81,7.97 21.7,4.76 38.12,9.82 55.85,23.94 11.17,10 17.26,19.46 21.3,33.97 3.49,15.54 2.36,27.18 -2.29,42.29 -5.54,15.48 -13.23,25.32 -26.78,34.55 -2.4,3.12 -20.22,9.65 -24.79,10.92 -1.58,0.44 -5.43,1.15 -6.61,1.65 -8.35,3.5 -33.07,3.74 -43.91,5.78 -4.92,0.83 -2.12,0.39 0.91,-1.75 3.94,-3.04 6.4,-6.38 8.42,-10.93 1.77,-4.45 2.49,-8.39 1.89,-13.15 -1.13,-5.98 -0.64,-1.64 3,3.81 7.04,10.44 15.84,20.18 24.43,29.35 5.59,5.95 10.9,11.58 15.75,18.19 6.24,8.7 9.54,15.98 11.22,26.63 0.8,2.08 0.43,12.1 0.19,14.83z"/>
     </g>
     <path class="fil1" d="M430.88 776.1c-15.97,22.45 -19.97,12.83 -45.08,55.09 -7.78,13.1 -48.68,20.87 -32.36,55.71 15.75,33.63 146.37,15.36 123.89,82.68 -17.32,51.87 -159.21,-10.56 -53.2,97.43 24.43,24.88 18.4,20.01 15.16,64.63 -3.52,48.51 -30.65,70.39 -78.29,74.28 -95.69,7.81 -60.76,148.4 -60.76,211.81"/>
     <g>
      <path class="fil5" d="M499.82 885.19c-18.19,-2.89 -33.5,-7.21 -50.79,-13.43 -14.45,-4.5 -75.91,-11.68 -77.26,-18.35 13.84,-41.52 57.47,-40.16 94.06,-34.19 18.76,1.57 34.8,2 53.5,-0.55 13.73,-1.78 22.72,-4.33 35.55,-8.99 0.18,-0.03 1,-0.36 1.24,-0.45 12.04,-4.47 21.54,-9.2 32.62,-15.69 14.35,-7.89 46.63,-30.83 62.87,-22.99 13.4,9.07 0.33,41.43 -5.16,51.76 -4.11,9.17 -8.21,13.84 -13.29,21.89 -15.76,18.22 -30.88,29.04 -53.51,37.52 -0.32,0.19 -1.93,0.66 -2.39,0.81 -21.81,6.72 -39.27,7.69 -61.91,5.37 -2.16,0.15 -12.83,-2.12 -15.53,-2.71z"/>
     </g>
     <path class="fil1" d="M652.48 771.14c-53.97,79.75 -108.82,96.06 -193.35,69.03 -64.74,-20.71 -70.99,0.06 -86.13,-1.23"/>
     <g>
      <path class="fil5" d="M443.57 1328.57c2.01,-0.06 11.63,-1.21 12.19,-1.12 3.85,0.62 39.94,-7.67 46.53,-8.78 14.52,-2.91 27.06,-5.28 41.96,-3.71 9.78,1.4 16.77,4.06 24.65,10.16 7.68,6.55 11.82,13.03 14.89,22.58 6.28,9.7 -0.96,61.33 1.3,75.39 0.93,5.76 -1.43,12.23 -2.13,17.51 -0.46,3.51 -3.44,7.48 -4.87,10.58 -1.96,4.22 -6.69,7.06 -9.52,10.02 -7.62,5.16 -14.31,7.14 -23.46,7.07 -2.86,0.88 -12.26,-2.42 -15.39,-3.1 -11.15,-2.46 -29.47,-17.99 -40.09,-23.43 -11.68,-7.64 -22.98,-14.81 -36.12,-19.73 -3.76,-1.84 -8.37,-1.85 -12.17,-2.66 -4.01,-0.16 -6.38,0.24 -10.02,1.98 -2.36,0.38 -20.14,15.57 -23.23,11.38 -1.67,-2.26 9.87,-22.83 11.59,-24.85 5.1,-6.65 9.71,-10.07 17.54,-13.13 8.17,-2.7 14.77,-3.03 23.31,-2.29 18.09,1.93 32.83,7.94 49.32,15.17 8.53,4.02 25.93,13.12 34.74,14.35l1.52 -0.16c-1.73,-0.47 -3.84,0.46 -5.29,1.31 -0.7,0.16 -2.1,1.95 -2.62,2.42 -0.4,0.37 -0.74,1.24 -1.07,1.64 -0.58,0.69 -0.53,-2.01 -0.72,-2.17 -1.67,-1.37 -1.98,-59.11 -6.42,-60.59 -0.04,1.75 1.95,4.06 3.1,5.2 0.22,0.71 4.22,2.67 4.19,2.86 -0.05,0.29 -21.73,5.04 -22.21,5.65 -0.79,0.99 -45,12.31 -50.02,13.5 -18.01,3.37 -32.35,4.93 -50.45,0.61 -10.7,-3.1 -18.12,-7.22 -26.36,-14.75 -8.4,-8.34 -12.87,-15.9 -16.81,-27 -7.47,-23.24 -6.23,-43.51 -2.96,-67.35 1.27,-6.59 3.06,-11.07 6.57,-16.71 0.83,-2.17 5.02,-6.59 6.54,-8.69 3.52,-4.85 9.51,-9.17 13.6,-13.43 8.97,-9.37 23.78,-18.46 34.15,-26.6 4.1,-3.23 9.54,-6.61 13.96,-9.55 18,-11.96 34.36,-20.76 52.75,-31.36 -4.67,2.56 -7.8,5.55 -10.63,10.06 -2.55,2.4 -3.71,10.65 -3.95,14.1 2.2,-33.6 33.54,-218.53 75.73,-229.93 15.49,3.18 3.46,100.9 2.21,112.71 -3.07,40.93 -5.08,76.48 -4.3,117.85 -0.2,9.3 -2.08,16.08 -6.73,24.14 -4.98,7.84 -10.24,12.73 -18.38,17.18 -18.59,11.68 -36.65,23.28 -54.82,35.66 -0.79,0.54 -1.71,1.25 -2.51,1.73 -9.65,5.78 -20.02,14.6 -29.16,21.42 -2.39,1.79 -4.58,4.01 -6.8,5.99 -0.69,0.61 0.73,-0.96 0.62,-1.05 2.19,-3.62 3.25,-6.8 4.05,-10.99 -1.99,11.18 -3.85,22.63 -2.56,34 0.23,1.1 -0.76,-0.4 -1.53,-1.07 -0.05,0.03 -2.22,-1.76 -2.56,-1.29 -0.54,0.74 8.62,1.27 8.85,1.27z"/>
     </g>
     <path class="fil1" d="M558.22 971.23c-19.4,94.53 -39.69,137.69 -39.69,236.48 -8.41,1.43 -111.47,66.22 -114.11,81.6 -15.95,92.76 33.73,78.02 105.04,62.69 57.56,-12.36 41.07,3.18 43.79,72.34 1.92,48.95 -85.75,-63.9 -136.59,-19.98 -7.39,6.38 -10.39,11.64 -17.2,16.67"/>
     <g>
      <path class="fil5" d="M1119.33 1188.45c13.37,34.38 22.1,68.59 28.71,104.84 4.32,26.23 6.98,50.2 5.9,76.83 0.7,11.55 -2.9,22.89 -4.66,34.13 -2.88,11.21 -6.27,20.03 -13.37,29.27 -0.57,-4.65 -1.95,7.86 -10.85,7.36 -7.92,0.34 -6.35,-11.62 -6.43,-17.79 1.73,-8.02 1.89,-15.44 1.59,-23.61 0.25,-3.46 -3.35,-24.93 -4.37,-28.57 -6.45,-23.16 -12.22,-44.12 -19.8,-67.12 -8.93,-26.63 -29.37,-83.83 -47.56,-104.55 -31.04,-50.25 -15.96,-48.45 -27,-84.69 -0.7,-1.48 -1.68,-5.59 -2.24,-7.43 -10.35,-32.16 -71.31,-165.78 -51.87,-188.36 10.66,-4.96 53.25,45.99 60.27,53.97 37.6,39.31 50.83,68.17 66.99,120.62 0.16,0.43 0.3,1.02 0.42,1.48 7.37,32.1 -2.65,37.26 13.38,68.09 4.46,8.37 7.68,16.63 10.89,25.53z"/>
     </g>
     <path class="fil1" d="M968.33 918.32c40.58,87.29 63.02,93.46 89.72,185.63 6.56,22.63 -4.12,38.87 19.42,77.73 24.24,40.01 65.5,194.99 38.46,239.78 -2.28,3.78 -5.39,14.92 -5.39,19.42"/>
     <g>
      <path class="fil5" d="M964.48 1066.95c10.01,16.32 18.24,31.78 26.98,48.75 14.87,31.71 23.5,57.15 26.39,92.32 1.62,38.77 -5.27,66.53 -23.72,100.59 -1.01,4.32 -22,36.87 -27.03,46.36 -1.43,3.59 -0.95,6.71 -0.43,10.49 -0.64,3.12 6.03,28.27 6.97,33.09 -3.13,-5.51 1.58,4.97 1.86,5.49 0.24,-0.12 2.03,4.63 2.23,5.24 0.89,2.79 -3.57,0.84 -4.05,2.68 -0.05,1.23 3,4.52 -1.37,3.49 -0.35,0.68 -6.31,-2.79 -6.56,-2.88 -2.31,-0.78 -7.75,-6.92 -9.66,-7.8 -0.51,-0.24 -15.78,-29.53 -17.2,-32.71 -3,-8.25 -4.66,-14.39 -4.33,-23.26 0.74,-18.87 13.56,-43.34 21.28,-60.51 10.36,-27 12.91,-47.42 8.17,-75.97 -5.39,-26.55 -14.6,-45.96 -28.05,-69.25 -31.88,-51.73 -70.63,-96.3 -102.59,-148.33 -8.14,-14.71 -18.33,-31.57 -28.04,-45.3 -3.67,-5.14 -7.3,-9.86 -11.61,-14.49 -4.38,-4.57 -9.11,-9 -15,-11.53 -4.09,-2.89 -13.7,0.03 -13.94,-0.05 -26.68,7.54 -208.86,47.37 -221.4,7.57 -0.84,-17.52 90.63,-38.47 102.76,-41.89 30.57,-9.41 64.06,-19.13 93.06,-32.36 21.95,-8.66 39.68,-10.22 62.53,-3.93 19.45,6.41 32.21,15.31 46.63,29.62 5.11,3.09 22.52,27.74 26.52,33.96 8.74,13.82 16.17,27.49 23.91,41.85 20.49,37.16 44.19,72.15 65.69,108.76z"/>
     </g>
     <path class="fil1" d="M543.33 929.89c46.05,-2.22 156.81,-20.42 208.51,-40.26 57.05,-21.88 89.66,43.49 113.96,86.99 57.25,102.46 162.17,202.92 101.3,317.65 -31.45,59.26 -36.3,51.53 -14.89,111.88 1.78,5.01 13.33,18.68 17.77,19.85"/>
     <g>
      <path class="fil5" d="M1007.58 1049.03c0.22,0.29 4.62,5.52 2.9,4 5.66,5.41 8.87,10.27 11.66,17.58 20.73,52.42 35.92,36.93 35.57,118.26 -0.33,32.23 22.38,78.95 35.4,108.58 9.82,22.63 19.35,44.75 26.63,68.37 6.44,21.16 12.04,43.81 7.47,65.93 -2.46,-13.29 1.27,9.91 -2.19,11.93l-9.63 -12.41c-5.51,-20.86 -12.44,-36.15 -22.32,-55.38 -11.59,-20.66 -24.06,-40.77 -36.4,-60.98 -23.52,-39.6 -49.42,-80.7 -54.17,-127.47 -3.38,-61.67 -18.7,-49.9 -40.77,-94.86 1.07,3.17 2.69,5.61 5.01,7.99 -31.68,-30.35 -75.74,-101.26 -101.52,-140.67 -9.54,-15.99 -19.23,-32.07 -31.46,-46.19 -4.04,-4.54 -7.66,-8.08 -12.46,-11.81 -7.73,-5.69 -14.07,-8.59 -23.24,-11.38 -14.02,-4.02 -26.88,-5.21 -41.4,-5.86 -39.7,-0.18 -41.25,7.01 -71.89,10.47 -25.83,2.25 -135.58,33.13 -146.4,6.05 3.08,-8.3 99.17,-54.2 108.64,-57.98 8.42,-3.14 22.04,-7.47 30.77,-8.51 -10.15,-4.8 53.18,-19.46 78.88,-20.68 21.49,-0.69 39.11,0.05 60.2,4.67 19.21,4.82 33.01,10.83 49.29,22.16 8.34,3.8 27.74,25.57 33.75,33.43 11.87,15.78 21.12,31.53 30.68,48.76 21.72,40.23 51.54,87.95 77,126z"/>
     </g>
     <path class="fil1" d="M538.37 900.13c57,0 84.91,-29.55 142.79,-36.25 12.71,-1.47 25.88,-15.02 75.5,-15.02 80.34,0 104.98,28.92 140.98,92.75 9.04,16.03 82.19,135.06 91.1,138.06 8.84,28.73 37.6,39.53 35.81,108.34 -1.74,67.07 85.24,178.17 82.69,242.95 -0.11,2.9 3.51,8.93 3.3,11.57"/>
     <g>
      <path class="fil5" d="M599.9 1231.09c-2.03,2.56 -15.01,17.09 -15.41,17.92 -0.88,0.63 -1.25,1.79 -1.56,2.78 -1.27,1.67 -0.98,10.56 -1.4,12.46 -1.4,6.47 2.69,37.76 2.63,47.47 0.28,23.32 -1.85,41.11 -14.07,61.5 -7.66,11.39 -15.21,18.37 -27.07,25.21 -4.45,3.89 -38.85,13.39 -40.88,5.27 0,-4.47 20.3,-21.15 25.61,-27.71 5.66,-6.59 8.73,-11.92 10.99,-20.33 3.25,-14.43 0.78,-26.73 -2.58,-40.88 -4.26,-16.56 -9.17,-31.85 -12.08,-48.83 -1.39,-10.15 -1.75,-18.45 -0.33,-28.66 2.12,-12.31 5.79,-21.03 13.38,-31.01 13.26,-18.32 27.22,-39.12 28.3,-62.47 1.02,-2.66 -1.1,-14.5 -1.91,-17.69 -0.81,-3.24 -6.9,-18.81 -6.92,-19.06 -11.22,-24.5 -62.63,-140.85 -18.09,-155.67 10.23,2.14 31.88,46.55 39.57,58.36 8.34,11.2 43.34,55.36 45.72,64.2 7.67,14.4 12.33,26.09 15.48,42.21 2.36,14.04 2.4,24.99 0.2,39.09 -6.14,30.87 -19.7,51.93 -39.58,75.84z"/>
     </g>
     <path class="fil1" d="M539.56 951.39c0,126.34 129.02,152.92 19.32,274.51 -36.94,40.96 39.99,138.71 -60.25,163.71"/>
     <g>
      <path class="fil5" d="M973.4 1119.97c-0.25,-0.48 -1.29,-2.31 -0.96,-1.43 2.12,4.28 6.68,10.33 9.51,14.25 14.93,20.96 29.81,40.98 44.04,62.54 36.33,59.23 78.06,145.55 53.6,216.19 -60.89,15.04 24.38,-23.54 -15.81,-0.21 -2.21,0.5 -14.69,7.35 -19.83,3.08 -55.76,-59.78 -69.09,-80.07 -140.17,-129.86 -19.48,-15.22 -39.44,-29.43 -59.06,-44.39 -8.94,-8.43 -16.59,-15.35 -25.03,-24.48 -11.72,-15.13 -18.04,-26.95 -22.87,-45.76 0.41,9.09 4.06,17.8 -3.8,13.77 -0.64,0.4 -24.02,-13.37 -26.45,-14.35 -12.13,-6.84 -24.19,-12.99 -36.5,-19.41 -0.57,-0.3 -12.36,-5.65 -9.77,-5.82 -28.92,-10.09 -100.21,-42.35 -108.87,-76.29 -0.67,-6.28 5.1,-6.69 -1.6,-14.84 -5.99,-20.65 -58.88,-44.64 -59.8,-77.15 -1.05,-37.4 64.43,-61.2 93.38,-65.47 4.05,-0.6 19.82,1.69 24.46,2.53 18.5,2.6 31.92,7.07 48.89,14.6 32.15,13.55 30.41,9.82 61.9,16.43 22.69,5.61 39.91,13.11 60.3,24.33 19.29,11.02 35.63,22.24 52.96,36.16 19.2,15.87 34.43,30.85 49.9,50.46 20.48,26.46 32.13,48.63 38.03,82.06 0,0 -2.88,-11.7 -6.45,-16.94z"/>
     </g>
     <path class="fil1" d="M549.95 972.89c143.58,-4.05 98.27,41.13 199.67,70.68 39.05,11.39 126.8,69.45 134.23,110.65 6.31,35.02 128.71,131.58 139.19,261.85 0.55,6.85 0.98,4.33 3.17,9.93"/>
     <g>
      <path class="fil5" d="M910.49 1210.07c13.59,18.09 22.14,34.04 30.52,55.02 8.18,21.5 13.52,39.06 16.15,62.08 2.52,28.99 -0.94,50.75 -13.52,77.12 -20.71,36.81 -40.44,49.86 -71.84,74.96 -16.41,13.34 -30.44,20.95 -50.54,27.42 -17.64,5.13 -32.21,6.95 -50.54,6.49 -31.72,-1.85 -55.1,-8.94 -83.2,-23.38 -25.26,-14.02 -43.33,-28.13 -62.65,-49.58 -19.3,-22.4 -31.37,-42.26 -39.53,-70.8 -3.11,-16.76 -13.35,-76.65 11.91,-82.31 3.58,0.77 49.45,49.97 54.44,55.68 12.59,12 24.64,19.61 40.28,27.12 15.25,6.54 28.64,10.55 45.18,12.43 11.32,1.18 23.47,1.44 33.84,-3.91 2.44,-1.33 5.01,-3.05 5.74,-5.9 0.34,-2 -0.42,-3.07 -1.88,-4.32 8.72,-10.18 38.56,-48.13 21.51,-35.96 -4.76,5.4 -5.87,12.15 -7.61,14.19 -2.67,2.35 -11.43,-15.04 -12.04,-15.16 -3.58,-4.59 -8.86,-11.78 -14.26,-6.17 -3.33,2.65 -17.33,0.14 -21.3,-0.35 -25.04,-3.16 -44.56,-7.34 -68.39,-16.39 -39.26,-16.12 -64.7,-36.18 -90.39,-69.93 -14.35,-21.08 -20.63,-39.81 -21.51,-65.2 -1.63,-4.9 2.79,-29.09 4.49,-35.33 0.39,-1.42 1.49,-4.45 1.67,-5.66 5.66,-16.87 11.96,-28.96 21.51,-43.79 15.17,-22.3 31.01,-40.21 49.91,-59.32 16.77,-16.77 65.54,-63.67 87.29,-71.49 -8.6,9.37 -13.93,18.04 -17.72,30.17 -2.22,3.86 -1.99,13.94 -2.27,18.52 0.11,0.78 1.81,10.44 3.84,5.84 3.51,-7.93 1.34,-26.62 0.56,-35.4 -5.92,-43.29 -16.09,-72.21 17.82,-102.87 38.51,-29.4 79.65,18.64 102.92,46.2 9.52,9.78 22.58,30.35 28.92,42.55 2.27,3.86 4.07,7.6 6.12,11.53 5.47,13.62 8.18,24.37 9.17,39.13 0.18,10.97 -0.93,19.56 -3.87,30.17 -4.87,15.36 -11.06,25.89 -21.95,37.83 -4.19,16.07 -46.74,69.02 -58.26,83.78 -9.59,12.3 -16.54,24.55 -24.97,37.18 -2.51,4.67 1.75,-3.55 2.62,-6.05 2.86,-9.14 3.77,-17.01 3.76,-26.63 -0.69,-21.17 -6.36,-37.06 -18.27,-54.6 0,-0.01 0.09,0.12 0.12,0.16 1.27,1.71 1.5,2.74 3.28,4 3.5,3.8 29.32,9.8 34.47,12.41 30.85,9.75 51.95,18.48 78.72,37.61 10.6,5.62 32.45,30.71 39.75,40.91z"/>
     </g>
     <path class="fil1" d="M730.2 872.01c17.41,20.73 79.25,129.13 59.1,149.26 -19.34,19.32 -137.6,132.47 -121.09,155.45 55.48,77.19 143.9,24.75 183.94,124.16 24.61,61.12 7.75,67.94 -40.21,109.81 -45.19,39.44 -138.39,-10.55 -161.26,-67.52 -10.09,-25.13 -13.09,-25.53 -13.09,-56.08"/>
     <g>
      <path class="fil5" d="M532.23 1387.22c-23.01,-15.06 -26.41,-18.87 -54.52,-26.44 -12.55,-6.12 -47.81,-1.54 -61.57,1.13 -2.99,-0.53 -24.21,6.8 -29.29,7.98 -5.9,1.96 -6.33,2.47 -10.44,-1.38 3.59,-26.11 -2.95,-10.12 -4.9,5.22 -1.26,10.95 -2.62,19.92 -6.07,30.49 -2.62,9.59 -5.67,16.75 -11.49,24.89 -2.46,5.53 -10.02,10.26 -14.29,14.13 -2.53,2.3 -19.48,9.47 -21.26,4.34 -0.42,-2.69 8.63,-12.17 10.9,-15.56 2.2,-2.27 4.41,-9.62 5.29,-12.75 1.46,-5.15 -0.3,-12.38 -1.58,-17.41 -0.66,-2.56 -10.94,-17.92 -13,-20.53 -7.7,-10.87 -16.66,-22.92 -18.77,-36.33 -0.69,-23.06 7.38,-40.04 20.97,-58.21 15.38,-20.19 31.5,-33.02 52.97,-46.31 42.79,-24.1 86.13,-37.82 135.56,-37.23 117.64,13.28 74.22,31.64 198.39,26.15 27.84,-1.69 51.95,0.47 79.39,4.79 55.03,9.64 120.72,24.91 170.35,51.19 25.3,13.55 49.23,29.33 72.34,46.31 9.12,5.8 20.92,17.14 28.67,25.02 10.35,10.53 29.03,30.07 34.65,43.44 9.82,27.74 -17,43.89 -39.04,52.64 -19.54,7.67 -36.9,9.9 -57.75,10.7 -5.59,1.27 -33.28,-0.93 -40.44,-1.56 -18.04,-0.6 -36.46,-2.53 -54.3,-2.7 -43.41,3.21 -115.18,-11.22 -159.72,-17.92 -3.17,-0.47 -33.16,-4.42 -34.15,-4.97 -66.92,-2.09 -121.7,-8.26 -176.9,-49.12z"/>
     </g>
     <path class="fil1" d="M1095.66 1402.84c-44.53,18.73 -119.25,-13.71 -165.37,-28.53 -44.43,-14.28 -174.57,-42.57 -221.16,-42.57 -141.59,0 -108.2,-40.6 -212.24,-62.42 -56.05,-11.75 -169.98,13.34 -190.03,77.44 -5.47,17.5 11.45,58.16 -1.66,62.7"/>
     <g>
      <g>
       <path id="__xd83c__xdfa8_-Background" class="fil1" d="M207.04 1449.97c-23.63,-1.07 -14.13,-39.6 -12.43,-53.75 18.7,-51.68 14.31,-108.06 21.66,-162.23 4.59,-50.57 10.48,-100.98 15.43,-151.51 9.73,-102.57 79.6,-311.38 159.33,-344.96 10.04,-41.09 51.52,-79.44 104.01,-79.44 35.79,-39.5 78.88,-67.3 134.14,-61.69 22.84,0.97 44.99,23.55 66.87,27.91 12.25,1.58 120.99,-2.48 142.77,9.58 15.17,7.27 28.87,20.69 24.41,37.77 -7.12,20.7 15,-1.69 61.14,20.4 94.1,52.68 37.87,123.16 35.38,125.34 58.72,76.17 110.04,137.96 133.78,231.05 15.39,69.11 13.66,140.46 26.56,209.93 4.55,24.08 11.53,47.35 19.09,70.74 8.19,30.61 12.18,106.91 16.69,107.59 8.22,1.9 -4.75,17.65 -13.47,17.66 -241.61,37.36 -487.02,1.55 -729.93,-4.31 -68.45,-2.21 -136.98,-2.72 -205.43,-0.08z"/>
       <path id="__xd83d__xdd8d_-Ink" class="fil6" d="M573.23 824.12c-0.11,-1.03 -1.6,-1.03 -1.72,0l-1.7 15.35c-2.08,18.75 -4.08,37.46 -5.53,56.3 -1.8,23.49 -3.01,46.97 -3.59,70.51 -2.03,81.99 -2.43,164.02 -2.61,246.03 -11.89,-0.76 -23.79,-1.5 -35.7,-2.22 -8.07,-0.48 -16.15,-0.95 -24.23,-1.41l-20.59 -1.17 0 0 -8.48 -0.48c-5.73,-0.33 -12.24,-1.68 -16.25,3.06 -1.6,1.89 -2.41,4.35 -0.91,6.6 3.45,5.19 8.74,5.01 14.74,5.23 5.65,0.21 11.3,0.42 16.95,0.63 12.12,0.44 24.23,0.85 36.35,1.17 12.72,0.33 25.43,0.6 38.14,0.8 0.13,34.62 1.67,69.2 3.33,103.78l0.75 15.57c2.03,42.08 4.22,84.21 7.33,126.24 0.25,3.44 5.47,3.43 5.73,0 3.5,-47.34 5.8,-94.77 8.09,-142.17 1.66,-34.36 2.63,-68.74 3.09,-103.11 1.68,0.01 3.36,0.03 5.04,0.04 47.71,0.19 95.41,0.38 143.13,-0.04 -0.08,0.09 -0.16,0.18 -0.21,0.3 -3.46,7.59 -3.79,17.29 -3.7,25.45 0.1,9.35 1.45,18.59 3.76,27.68 8.27,32.59 29.63,61.77 53.95,85.9l0.79 0.78c5.74,5.66 12.32,11.33 15.84,18.53 3.6,7.35 4.85,15.95 6.62,23.84l0.21 0.91 6.94 29.89c2.21,9.49 2.83,23.34 10.9,30.19 7.52,6.39 17.48,3.06 21.02,-5.17 2.76,-6.43 0.01,-13.48 -1.63,-19.9l-12.82 -50.26c-2.11,-8.2 -4.41,-16.45 -8.96,-23.81 -4.66,-7.54 -11.49,-13.01 -18.46,-18.61 -13.2,-10.59 -25.31,-22.72 -35.56,-35.85 -10.24,-13.12 -19,-27.59 -25.13,-42.8 -3.08,-7.62 -5.6,-15.53 -7.33,-23.51 -1.66,-7.57 -1.64,-15.4 -3.41,-22.89 -0.12,-0.52 -0.59,-0.88 -1.12,-1.03 0.12,-0.34 -0.07,-0.79 -0.57,-0.82l-39.02 -2.34c-34.69,-2.08 -69.37,-4.22 -104.03,-6.66l-6.12 -0.42 0 0c0.47,-45.87 0.07,-91.74 -0.82,-137.63 -0.81,-42.08 -0.83,-84.17 -2.17,-126.24 -0.67,-20.88 -2.11,-41.72 -3.71,-62.55 -1.64,-21.32 -4.26,-42.45 -6.62,-63.69zm366.39 243.98c0.42,-2.34 -2.73,-3.79 -4.19,-1.65 -16.61,24.42 -24.62,50.94 -28,79.51 -2.98,25.22 -2.11,50.8 -0.62,76.08 1.59,26.97 3.43,53.93 5.3,80.88l2.87 41.33 0 0 7.21 103.61c0.52,7.41 2.32,14.15 9.17,17.6 0.86,0.67 1.77,1.28 2.82,1.8 3.7,1.85 8.6,0.92 10.74,-2.62l-0.86 0.52c-0.74,0.44 0.09,-0.17 2.52,-1.83l2.06 -2.48 0 0c1.49,-2.1 2.45,-4.16 2.83,-6.65 0.6,-3.87 -0.17,-8.11 -0.45,-12l-4.72 -67.94 0 0c-3.67,-52.82 -7.96,-105.63 -11.2,-158.47 -1.5,-24.63 -2.56,-49.29 -1.84,-73.96 0.71,-24.54 2.05,-49.49 6.36,-73.73zm-143.74 -454.83l-0.92 -0.14c-33,-5.11 -68.89,-4.15 -99.05,10.68 -0.25,0.12 -0.14,0.5 0.14,0.49l9.71 -0.36c30.73,-1.12 61.37,-1.78 91.59,4.95l3.1 0.69c10.88,2.48 22.24,5.51 30.99,12.21 8.35,6.4 12.51,16.28 16.51,25.38l0.53 1.2c4.06,8.98 9.2,17.5 18.1,23.12 11.52,7.28 25.38,6.38 38.59,7.37 23.26,1.75 42.28,17.46 51.75,36.7 5.73,11.64 8.17,24.7 8.65,37.44 0.25,6.48 0.29,13.22 -0.64,19.66 -0.29,2.06 -3.03,9.56 -4.42,9.38 -3.09,-0.4 -5.92,1.1 -6.89,3.41 -7.64,-6.88 -15.5,-13.57 -23.62,-20.01 -20.23,-16.07 -42.02,-30.63 -64.97,-43.14 -17.52,-9.54 -36,-19 -55.13,-26.16 1.52,-0.03 3.01,0.25 4.46,0.96 0.63,0.3 1.26,-0.44 0.76,-0.93 -6.02,-5.91 -13.24,-6.75 -20.52,-5.17 -1.55,-0.46 -3.11,-0.91 -4.66,-1.33 -0.78,-0.21 -1.17,0.78 -0.53,1.17l1.78 1.07 0 0c-7.93,2.47 -15.73,7.35 -21.9,11.19 -17.72,11.04 -33.32,24.55 -49.14,37.79l-2.88 2.4c-13.92,11.59 -28.19,22.85 -44.01,32.15 -8.28,4.86 -16.97,9.36 -26.1,12.71 -7.82,2.88 -20.56,4.69 -24.22,12.39 -3.26,3.69 -1.9,8.4 1.92,10.88 6.43,6.6 19.3,2.34 26.97,-0.41 9.24,-3.32 18.19,-7.3 26.73,-11.97 16.58,-9.07 31.86,-20.35 46.1,-32.35 14.87,-12.54 28.89,-25.85 43.36,-38.78 6.26,-5.6 12.39,-11.33 18.66,-16.92l3.15 -2.78c3.21,-2.81 7.77,-7.17 12.65,-9.81 9.19,5.11 18.53,10.01 27.64,15.26 12.71,7.31 25.05,15.16 37.2,23.27 23.4,15.6 45.57,33.08 66.14,51.81 37.75,34.36 69.9,73.59 97.99,115.13l2.14 3.16c15.96,23.78 31.06,48.32 41.76,74.59 11.78,28.91 17.5,59.31 20.62,90 3.08,30.47 4.13,61.09 7.58,91.53 3.54,31.22 10.51,61.75 18.44,92.22l1.89 7.22c7.18,27.29 14.59,54.59 18.28,82.52 1.97,14.92 3.15,30.05 2.88,45.09 -0.27,15.13 -2.82,29.92 -4.87,44.9 -0.79,5.73 5.26,10.52 10.68,11.28 6.23,0.87 11.58,-2.83 13.52,-8.23 6.04,-16.82 7.13,-35.41 6.94,-53.07 -0.19,-17.92 -2.64,-35.73 -6.09,-53.34 -6.79,-34.64 -17.27,-68.57 -26.04,-102.81 -7.72,-30.17 -12.91,-60.39 -15.7,-91.3 -2.9,-32.07 -4.64,-64.24 -9.93,-96.08 -5.23,-31.43 -15.06,-61.45 -29.88,-90.11 -13.5,-26.09 -30.32,-50.65 -47.96,-74.46 -21.42,-28.91 -44.95,-56.41 -71.25,-81.48 2.37,-0.09 4.79,-0.8 7.02,-2.1 6.81,-3.96 9.99,-11.71 10.96,-18.79 2.29,-16.56 1.74,-33.84 -2.83,-50.03 -7.37,-26.12 -26.49,-49.32 -54.21,-58.73 -7.13,-2.43 -14.72,-3.31 -22.28,-3.48 -7.17,-0.17 -15.01,0.7 -21.93,-1.42 -11.02,-3.38 -15.74,-15.47 -19.88,-24.64l-0.19 -0.42c-5.3,-11.69 -11.67,-21.71 -23.16,-29 -12.26,-7.79 -27.61,-11.33 -42.08,-13.62l0 0zm-313.58 46.22c-9.92,-3.21 -22.32,-0.3 -32.02,2.5 -10.8,3.13 -20.79,8.88 -29.35,15.71 -9.03,7.2 -16.49,16.1 -21.77,26.03l-0.5 0.96c-4.82,9.22 -10.3,21.87 -7.87,32 0.07,0.28 0.14,0.56 0.24,0.83 -19.68,9.03 -37.85,20.34 -53.68,34.68 -18.42,16.69 -34.03,35.68 -47.23,56.2 -52.44,81.5 -61.67,179.38 -67.86,272.33l-1.55 23.56c-3.36,50.89 -7.3,101.66 -17.52,151.85l-0.75 3.62c-10.92,52.55 -26.57,105.49 -24.98,159.4 0.47,16.15 26.07,16.04 26.82,0 2.79,-60.38 17.9,-118.67 28.14,-178.1 18.01,-104.57 8.98,-212.37 34.5,-315.88 10.01,-40.62 25.52,-80.03 47.67,-116.29 10.94,-17.91 23.46,-35.22 38.12,-50.68 12.62,-13.29 25.73,-26.09 40.47,-37.27 4.72,4.4 14.13,2.16 16.59,-4.25 1.69,-4.41 1.19,-9.56 2.28,-14.18 1.01,-4.29 2.39,-8.53 4.24,-12.57 3.69,-8.04 9.09,-15.76 15.34,-22.27 6.74,-7.03 14.49,-12.88 23.17,-17.7 8.73,-4.86 18.29,-6.31 27.5,-9.86 0.31,-0.12 0.34,-0.51 0,-0.62zm-38.53 558.81c-0.02,-0.42 -0.56,-0.62 -0.89,-0.34 -3.47,2.98 -5.57,7.27 -8.13,10.93 -2.96,4.23 -6.05,8.38 -9.3,12.42 -6.52,8.08 -13.76,15.71 -21.07,23.18 -6.79,6.94 -14.04,13.59 -21.55,19.86 -8.14,6.8 -17.26,12.86 -24.66,20.39 -15.43,15.7 -17.92,37.25 -21.18,57.48l-0.35 2.19c-1.99,12.01 -3.77,24.05 -5.37,36.11 -0.78,5.86 -1.56,11.73 -2.19,17.61l-0.2 1.87c-0.57,5.75 -0.72,11.59 2.83,16.62 3.79,5.38 12.42,7.27 17.56,2.11 8.81,-8.86 7.16,-24.61 8.3,-36.01 0.95,-9.43 2.03,-18.85 3.23,-28.25l0.61 -4.7c1.42,-10.7 2.57,-21.61 5.2,-32.12 2.31,-9.26 6.72,-16.25 13.96,-22.95 7.29,-6.76 14.86,-13.06 21.59,-20.34 7.13,-7.72 13.57,-15.99 19.37,-24.62 4.96,-7.39 8.94,-15.43 12.58,-23.46l0.6 -1.33c3.53,-7.83 9.33,-18.02 9.06,-26.65zm-127.29 -336.27c-0.07,-1.1 -1.81,-1.11 -1.83,0 -0.22,9.39 -0.43,18.78 -0.64,28.17 -1.68,75.68 -0.65,151.54 -8.79,226.97 -3.84,35.56 -10.92,70.59 -19.1,105.49 -4.19,17.85 -8.58,35.66 -12.76,53.52 -4.07,17.4 -8.43,34.89 -11.66,52.45 -3.17,17.27 -6.01,34.66 -7.28,52.15l-0.16 2.28c-0.55,8.47 -3.17,20.93 1.83,28.44 5.42,8.13 15.8,8.27 21.61,0.51 5.45,-7.29 4.1,-20.25 5.06,-28.95 0.98,-8.86 2.02,-17.73 3.19,-26.56 2.3,-17.24 5.32,-34.45 8.46,-51.57 6.55,-35.66 16.05,-70.87 23.07,-106.48 7.18,-36.48 12.29,-73.22 12.5,-110.37 0.22,-37.46 -4.04,-74.84 -6.18,-112.22 -2.18,-37.96 -4.66,-75.9 -7.32,-113.83zm383.5 -235.4c-2.18,-6.84 -9.87,-11.12 -17.38,-9.2 -6.88,1.76 -12.56,9.54 -9.87,16.2 2.94,7.27 8.07,13.46 12.39,20.06 3.99,6.1 9.82,10.91 13.88,16.9l-4.48 4.5c-2.24,2.25 -4.49,4.49 -6.76,6.68l-7.82 7.55c-6.09,5.87 -12.22,11.7 -18.52,17.37 -18.52,16.65 -37.34,32.76 -58.09,47.03 -4.72,3.25 -9.48,6.48 -14.37,9.5l-1.82 1.13c-3.36,2.04 -7.11,4.06 -11.16,3.71 -9.86,-0.84 -18.76,-10.6 -25.53,-16.67l-0.35 -0.32c-16.78,-14.88 -32.32,-31.15 -45.9,-48.65 -3.02,-3.89 -5.94,-7.84 -8.78,-11.84 6.56,-7.16 4.99,-21.12 5.36,-29.79 0.25,-6.1 0.27,-12.2 0.31,-18.3l0.02 -1.23c0.07,-3.95 0.27,-7.74 -2.48,-10.99 -0.16,-0.19 -0.49,-0.18 -0.7,-0.09 -3.77,1.84 -4.93,4.93 -6.53,8.38l-0.17 0.36c-1.96,4.15 -3.83,8.33 -5.73,12.51 -1.98,4.36 -3.8,8.79 -5.64,13.21 -0.86,2.06 -1.68,4.12 -2.48,6.2 -0.49,1.32 -0.99,2.64 -1.51,3.96l-0.12 0.1c-0.69,0.54 -1.27,1.11 -1.77,1.71 -2.1,0.98 -3.77,2.76 -4.56,5.38 -1.7,5.72 1.83,10.37 4.98,14.91 12.78,18.41 27.36,35.97 43.57,51.89 8.05,7.91 16.51,15.46 25.33,22.63l1.54 1.24c7.92,6.34 16.51,12.35 27.09,13.84 12.37,1.73 22.45,-4 31.92,-10.61l0.95 -0.67c8.98,-6.34 17.77,-12.89 26.3,-19.76 17.39,-13.99 33.92,-29.01 48.6,-45.49 14.28,-16.04 28.39,-33.96 37.19,-53.25 0.54,-1.18 -0.87,-2.41 -1.98,-1.43 -4.3,3.82 -8.43,7.84 -12.52,11.92 -0.12,-6 1.07,-12.05 0.41,-18.08 -0.8,-7.34 -0.57,-15.44 -2.82,-22.5z"/>
       <path id="__xd83d__xdd8d_-Ink_0" class="fil6 str0" d="M528.52 592.2c8.67,-3.3 16.4,-8.79 22.05,-15.81 1.96,-2.44 2.47,-5.02 2.06,-7.38 -0.47,-2.65 -2.15,-5.05 -4.44,-6.66 -2.3,-1.62 -5.18,-2.41 -7.96,-2.01 -2.42,0.36 -4.83,1.59 -6.73,4.15l-0.4 0.51c-3.36,4.24 -7.74,7.72 -12.73,9.96 -4.8,2.16 -10.18,3.17 -15.75,2.58 -10.6,-1.12 -17.9,-6.46 -25.66,-13.72 -0.97,-0.91 -1.93,-1.86 -2.9,-2.82 -0.61,-0.87 -1.46,-1.43 -2.4,-1.72 -1.04,-0.33 -2.23,-0.31 -3.31,0.04 -1.04,0.34 -1.98,0.99 -2.61,1.85 -0.59,0.81 -0.93,1.82 -0.82,2.97 0.71,7.52 4.93,14.23 10.92,19.51 6.65,5.85 15.47,9.9 23.77,11.32 9.15,1.56 18.47,0.44 26.91,-2.77l0 0zm-31.22 -116.01c-9.73,5.52 -24.56,18.37 -14.09,32.05 12.32,12.05 30.07,-1.77 38.81,-8.02 8.1,-4.85 17.21,7.61 9.69,13.27 -63.18,43.61 -88.81,-35.86 -39.33,-43.78 5.45,-0.88 7.47,4.78 4.92,6.48zm113.21 -50.72c-1.07,-12.45 -21.39,-15.27 -23.42,-2.96 -1.81,11.03 0.32,21.16 5.65,31.09 5.09,9.49 17.89,5.06 18.86,-3.58 1.3,-11.58 -0.41,-16.81 -1.09,-24.55zm-154.72 -5.51c-2.84,-3.46 -6.93,-5.82 -11.83,-4.49 -15.32,4.17 -10.8,24.44 -5.42,34.31 2.92,5.36 12.37,6.72 16.64,2 6.96,-7.69 10.29,-23.06 1.44,-30.64 -0.24,-0.39 -0.51,-0.78 -0.83,-1.18zm137.17 -48.94l-2.42 -0.39c-7.49,-1.21 -16.79,-2.37 -22.09,3.24 -2.8,2.98 -3.77,8.51 0,11.35 6.64,5.01 13.98,3.07 21.94,3.5 6.56,0.35 12.86,1.36 19.17,3.04 13.86,3.69 25.15,10.43 36.98,17.83 1.56,0.97 3.14,-0.88 2.4,-2.23 -6.83,-12.48 -20.07,-22.72 -33.33,-28.97 -7.08,-3.33 -14.82,-6.1 -22.65,-7.37zm-123.21 -5.59l-1.85 0.36c-20.16,3.92 -46.34,11.77 -55.88,30.22 -0.36,2.61 0.02,3.17 0.33,3.54l0.11 0.12c0.25,0.31 0.46,0.74 1.67,1.09 0.34,-0.07 0.68,-0.15 1.02,-0.23 4.38,-1.07 7.84,-2.54 11.19,-4.07l3.63 -1.67c4.22,-1.93 8.47,-3.78 12.97,-5.15 9.62,-2.93 19.51,-4.99 29.56,-6.09 2.17,-0.24 4.27,-0.92 5.93,-2.09 1.57,-1.12 2.76,-2.66 3.31,-4.71 0.71,-2.66 0.51,-4.67 -1.02,-7.06 -1.15,-1.8 -2.79,-3.05 -4.68,-3.76 -1.92,-0.73 -4.11,-0.9 -6.29,-0.5z"/>
       <g id="Glasses_x0020_3.svg">
        <g id="accessories_x002f_Glasses-3">
         <g>
          <path id="__xd83d__xdd8d_-Ink_1" class="fil6" d="M405.28 475.37c7.71,9.65 21.99,12.72 35.17,11.66 28.42,-2.55 37.37,-32.63 38.3,-56.01 -19.06,5 1.61,-30.39 -63.54,-34.28 -22.97,-1.78 -16.63,11.14 -26.78,20.59 0.21,19.82 3.75,41.36 16.85,58.04l0 0zm135.38 -22.77c16.78,73.23 108.67,55.81 118.32,-10.2 -8.91,-5.87 -6.57,-20.34 -17.64,-25.59 -17.55,-10.45 -39.49,-10 -59.42,-9.75 -25.47,1.63 -32.73,11.46 -45.82,22.19 0.63,7.17 2.45,15.66 4.56,23.35l0 0zm-171.78 -67.99c0.94,-0.14 1.88,-0.28 2.83,-0.41 0.73,-0.39 1.6,-0.69 2.6,-0.87 2.3,-0.54 4.58,-0.91 6.85,-1.11 32.66,-6.85 108.22,2.88 111.33,28.85 10.4,3.24 19.4,0.34 31.46,0.63 9.17,-35.74 167.8,-30.7 175.43,-9.15 0.03,-0.01 0.05,-0.01 0.08,-0.02 7.33,-2.12 18.14,-1.61 26.53,-1.94 17.92,-0.35 35.85,1.14 53.38,4.66 32.82,4.86 77.62,10.55 54.79,48.74 -0.01,0.01 -0.01,0.02 -0.01,0.02l-0.01 0c-3.93,3.76 -10.61,0.73 -10.86,-4.35 7.68,-18.1 -9.66,-20.27 -22.99,-25.47 -33.19,-11.11 -66.98,-12.65 -101.3,-9.22 -2.58,2.84 -6.5,5.31 -10.64,6.6 -22.95,3.55 -10.86,19.41 -25.36,21.72 2.66,55.3 -69.38,85.48 -111.13,49.13 -16.66,-15.18 -20.64,-37.68 -24.5,-57.95 -2.04,-0.43 -3.34,-1.47 -4.1,-2.85 -4.92,-4.57 -8,-8.79 -17.72,-10.05 -9.72,-1.25 -17.2,1.26 -18.21,2.04 -0.25,0.47 -0.53,0.95 -0.85,1.43 -0.44,0.72 -1.04,1.29 -1.73,1.74 9.6,55.07 -36.28,89.89 -82.59,61.33 -20.12,-17.64 -24.37,-44.64 -25.21,-68.75 -2.73,-1.53 -4.46,-4.51 -3.51,-8.24 1.3,-5.16 -1.75,-9.62 -6.61,-11.86 -6.32,-2.91 -5.2,-13.53 2.05,-14.65z"/>
         </g>
        </g>
       </g>
       <path id="__xd83d__xdd8d_-Ink_2" class="fil6" d="M842.64 196.57c-30.04,-29.71 -200.56,-75.66 -286.84,-65.92l-2.58 0.31c-6.89,0.82 -13.67,2.05 -20.37,3.72 -21.65,4.71 -44,11.85 -61.89,23.76 -14.93,9.75 -62.03,25.67 -48.15,51.16 -5.14,9.09 -7.06,20.32 -3.58,29.27 0.43,3.09 1.46,5.94 2.76,8.89 -10.99,15.12 -19.7,32.23 -26.75,48.49 -12.31,40.94 -19.98,83.54 -21.1,125.31 -3.74,79.35 5.6,174.14 79.76,225.45 44.81,32.52 114.99,33.61 165.33,-6.71 2.86,-3.15 16.3,-11.65 11.81,-13.14 -1.33,1.31 -2.7,2.59 -4.1,3.84 0.06,-0.14 0.08,-0.27 0.05,-0.43l1.31 -1.1c2.48,-2.14 5.68,-5.23 2.03,-4.63 -0.16,0.18 -0.33,0.33 -0.51,0.5 -0.77,0.44 -1.36,0.81 -1.81,1.14l-0.23 0.18 0.07 -0.07c2.1,-2.09 3.36,-4.23 0.22,-2.86l-0.42 0.18c-1.4,1.38 -2.82,2.69 -4.26,3.97 0.02,-0.15 0,-0.3 -0.09,-0.47l1.35 -1.21c1.31,-1.2 1.11,-1.21 0.47,-2.18 2.8,-3.66 -2.43,-1.49 -2.79,-0.06 -3.27,-0.72 -6.14,5 -8.25,5.7 -92.29,66.12 -226.23,7.45 -224.06,-176.8l0.03 -3.61c0.64,-58.92 5.96,-119.47 32.11,-172.8 2.54,-5.14 5.39,-10.14 8.51,-14.97 2.16,-3.63 4.47,-7.16 6.95,-10.6 6.95,-0.53 13.81,-1.71 20.57,-3.55 2.32,-0.54 4.61,-1.15 6.91,-1.86 33.52,1.71 66.3,3.56 99.92,5.32l10.5 0.61c28.48,1.7 57.94,4.44 80.92,20.85 22.55,14.95 22.65,44.42 41.95,60.82 27.53,17.41 27.73,33.11 33.03,58.77 -0.39,19.34 -14.78,47.44 11.63,55.58 -4.46,5.92 1.75,3.08 2.24,1 0.05,0.01 0.1,0.02 0.14,0.02 -3.97,6.88 1.86,2.55 2.38,0.34 0.31,-0.08 0.62,-0.29 0.93,-0.58 -4,6.02 2.47,1.81 2.09,0.71 7.73,-11.07 23.63,-12.79 34.85,-9.86 0.13,0.4 0.63,0.43 0.94,0.22 47.68,9.63 35.38,101.61 -13.48,92.72 -2.09,-0.4 -2.04,0.54 -2.46,0.63 1.13,-2.77 -2.05,-1.64 -2.02,-1.06l-0.19 -0.01c-0.15,-0.01 -0.09,-0.03 -0.21,0.01 1.1,-5.65 -5.05,2.53 -4.56,2.87 -0.19,-0.11 -0.4,-0.16 -0.59,-0.19l0.21 -0.53c1.02,-2.53 0.94,-1.48 0.93,-2.93 0.76,-1.79 0.82,-1.01 0.64,-2.17 -2.69,-1.95 -3.48,3.95 -4.38,4.38 1.54,-2 0.31,-3.63 -1.14,-2.55 -11,21.57 -25.22,41.84 -43.59,57.8 -2.01,1.48 -4.04,2.93 -6.15,4.3 -7.81,6.35 -19.8,10.43 -27.11,16.04 0,0.1 0.05,0.21 0.12,0.33l-0.17 0.14 0 0 -0.17 0.15 -2.54 1.14c-0.75,0.59 -1.42,1.25 -2.02,1.99 -0.64,0.68 -1.2,1.44 -1.67,2.24 -0.24,0.98 0.28,1.38 1.28,0.96 0.44,-0.14 0.88,-0.3 1.31,-0.45 -0.02,0.04 -0.03,0.06 -0.06,0.08 -0.14,0.2 -1.11,2.3 0,1.96l0.14 -0.05c0.61,-0.21 1.22,-0.44 1.82,-0.66 -0.71,0.82 -1.36,1.72 -1.93,2.47 -0.62,0.59 -0.99,1.29 -1.14,2.08 0.03,0.44 0.29,0.63 0.76,0.57 0.72,-0.22 1.43,-0.45 2.15,-0.7l-0.21 0.36c-0.5,0.93 -1.21,2.47 0.06,1.96 1.08,-0.32 2.13,-0.68 3.18,-1.07 0.08,0.16 0.26,0.22 0.61,0.07 3.33,-1.11 6.55,-2.45 9.63,-4.05 2.7,-1.83 5.44,-3.63 8.15,-5.46 2.56,-1.43 5.03,-3.02 7.39,-4.81 15.77,-9.5 29.58,-21.56 40.53,-34.99 18.32,14.79 54.95,0.66 77.61,-10.91 20.04,-10.35 27.92,-29.47 29.96,-50.09 4.23,-27.77 28.58,-37.27 26.88,-98.18 0.04,0.01 0.08,0.01 0.13,0.01 0.89,-0.25 1.74,-0.57 2.56,-0.99 0.83,-0.37 1.62,-0.81 2.35,-1.35l0.91 -1.17 0 0c0.48,-0.25 0.9,-0.5 1.23,-0.76l0.16 0.2c0.54,0.6 0.18,-0.3 0.15,-0.48l1.58 -2c3.75,-4.77 7.86,-10.13 11.21,-14.41l0.11 0.18c0.08,0.13 0.12,0.22 0.08,0.26 7.98,-10.68 15.48,-23.58 17.56,-36.06 2.46,-9.62 1.5,-19.53 -0.65,-28.44 -9.2,-31.21 -39.35,-101.81 -78.93,-132.08zm-216.46 431.51l0.5 -0.42 -0.44 0.52c-0.23,0.26 -0.46,0.5 -0.85,0.74 0.03,-0.08 0.03,-0.16 0.02,-0.25 0.25,-0.18 0.51,-0.38 0.77,-0.59zm-70 -481.75c58.51,-4.69 116.05,7.32 171.88,21.86l3.85 1.03c31.75,8.44 65.32,16.04 92.14,34.11 37.48,26.75 56.84,69.31 73.73,108.6 14.75,29.2 7.21,62.12 -15.02,82.5 -2.31,-20.26 -6.25,-39.92 -12.42,-59.43 -1.28,-3.05 -0.31,-4.04 -3.08,-4.44 -4.19,52.57 16.43,91.41 -24.37,153.71 -17.7,29.39 2.79,50.9 -47.2,66.37l-1.35 0.48c-10.41,3.67 -21.79,6.56 -31.99,4.51l0.92 -1.39c0.93,-1.42 1.21,-2.11 -0.14,-2.72 0.03,-0.07 0.08,-0.14 0.13,-0.23 1.1,-1.93 2.16,-3.88 3.17,-5.85 0.41,0.12 0.82,0.22 1.25,0.32 -0.28,0.48 -0.31,0.95 0.46,1.12 2.75,0.88 5.57,1.23 8.46,1.06l0.62 -0.04c3.26,-0.19 5.32,-0.74 7.16,-1.25 0.61,-0.1 1.22,-0.19 1.82,-0.31 5.92,-1.22 12.18,-4.33 16.24,-7.41 46.22,-24.47 41.44,-107.74 -15.53,-115.62 -1.17,-52.43 -27.93,-140.89 -72.35,-190.85 -40.14,-45.96 -149.74,-65.88 -225.99,-58.86 -1.11,0.35 -2.22,0.69 -3.34,1.04 -11.76,0.98 -22.97,5.86 -34.74,8.13 8.45,-5.9 18.04,-9.84 27.92,-13.18 19.67,-11.21 42.23,-17.28 64.03,-21.56 4.51,-1.04 9.09,-1.61 13.74,-1.7zm233.34 319.11c-3.07,-1.55 -2.72,-0.06 -3.42,-0.49 -22.03,-1.68 -45.79,16.3 -58.11,31.29 0.97,0.94 3.61,-1.85 4.07,-2.29 0.06,0.05 0.13,0.1 0.21,0.12l-0.34 0.46c-5,6.67 4.9,-1.18 5.83,-2.8 0.16,0.08 0.32,0.12 0.51,0.09 -0.79,0.72 -3.18,2.59 -3.59,3.92l-0.64 0.49c-5.99,4.78 -5.49,8.37 1.31,1.59 -0.16,0.31 -0.22,0.6 -0.11,0.83l-0.24 0.15c-3.34,2.18 -6.09,8.25 0.9,2.02 -0.73,4.55 6.92,-4.25 7.17,-4.19 13.24,-9.69 32.74,-19.11 49.35,-20.37l0.58 -0.06c3.04,-0.37 4.48,-1.21 3.41,-3.07 3.76,-0.83 2.88,-2.55 1.1,-2.5 2.65,-1.62 0.27,-3.17 -1.27,-2.57 1.06,-2.72 -3.18,-0.91 -3.57,-1.29 -2.2,-3.16 -2.79,-0.52 -3.15,-1.33zm46.18 -168.94c-10.58,-3.62 -41.84,7.2 -39.34,21.52 1.49,3.29 6.4,5.17 9.84,3.32l4.51 -2.82c7.83,-4.89 14.89,-9.18 23.3,-13.44 4.58,-2.12 6.55,-6.61 1.69,-8.58zm-60.21 -21.29l4.09 -2.48c22.05,-13.45 53.23,-33.83 -2.06,-12.74 -6.3,2.52 -14.68,4.01 -18.12,9.6 -5.4,10.31 8.82,11 16.09,5.62zm-2.48 -60.35c1.77,-6.26 -20.25,1.08 -26.66,3.02l-0.98 0.34c-6.23,2.17 -13.38,4.18 -17.11,9.19 -4.37,6.93 4.47,8.37 9.95,5.24 11.24,-6.84 23.55,-12.01 34.8,-17.79zm-56 -29.16c12.4,-12.61 -20.78,-0.53 -25.75,2.83l-0.14 0.09c-3.71,2.44 -2.95,7.68 0.53,9.22 9.91,0.17 17.21,-7.53 25.36,-12.14zm-56.41 -13.82c19.71,-13.2 -6.25,-6.92 -15.26,-1.75 -6.15,5.05 0.18,13.58 15.26,1.75z"/>
      </g>
      <g id="Full.svg">
       <g id="facial-hair_x002f_Full">
        <g>
         <path id="__xd83d__xdd8d_-Ink_3" class="fil6" d="M602.9 591.05c-9.61,-20.97 -30.58,-36.39 -54.72,-42.02 -17.73,-4.13 -36.34,-4 -54.41,-2.36 -9.47,0.85 -19.62,1.55 -28.55,4.83 -7.62,2.8 -13.83,8.09 -18.5,14.3 -5.56,7.36 -9.34,15.79 -11.99,24.42 -0.38,1.23 -0.73,2.46 -1.06,3.71 1.15,6.51 3.6,12.06 10.08,16.15 6.32,4 13.86,5.64 21.37,6.22 0.74,-0.33 1.45,-0.67 2.1,-1.01 11.72,-6.25 19.96,-21.02 34.74,-19.02 13.2,1.78 21.88,17.25 29.73,26.32 25.18,2.74 50.35,-4.31 70.84,-17.73 1.04,-4.6 1.1,-9.23 0.37,-13.81l0 0zm-186.35 -15.91c2.01,-5.27 4.55,-10.37 7.56,-15.18 9.94,-15.89 25.21,-28.56 43.33,-35.8 42.86,-17.1 98.33,-5.05 132.95,23.01 11.82,9.59 23.78,23.68 27.39,38.84 1.08,0.19 2.1,0.72 2.94,1.46 25.01,-14.68 50.77,-28.8 70.92,-49.14 14.64,-14.78 24.82,-32.27 31.05,-51.49 0.51,-1.58 3.25,-1.35 3.17,0.4 -0.02,0.41 -0.05,0.82 -0.07,1.23 0.26,-0.75 1.49,-0.37 1.59,0.36 3.35,23.35 7.55,48.11 3.68,71.58 -2.31,14 -9.14,24.25 -18.26,35.32 -9.78,11.87 -20.85,22.91 -32.17,33.49 -7.18,6.72 -14.68,14.47 -23.47,19.4 -10.23,5.72 -21.83,10.07 -32.75,14.49 -11.1,4.51 -22.37,8.67 -33.86,12.28 -22.95,7.24 -46.68,12.24 -70.82,14.43 -19.33,1.75 -41.42,3.66 -59.95,-3.12 -14.19,-5.19 -25.65,-14.58 -34.74,-25.87 -9.9,-12.3 -17.72,-26.31 -22.05,-41.08 -4.49,-15.35 2.61,-42.13 3.56,-44.61z"/>
        </g>
       </g>
      </g>
     </g>
    </g>
   </g>
  </g>
  <path class="fil1 str1" d="M635 21.16c339.01,0 613.83,274.83 613.83,613.84 0,339.01 -274.82,613.84 -613.83,613.84 -339.01,0 -613.84,-274.83 -613.84,-613.84 0,-339.01 274.83,-613.84 613.84,-613.84z"/>
 </g>
 <g id="Capa_x0020_1">
  <metadata id="CorelCorpID_1Corel-Layer"/>
 </g>
</svg>
